%TF.GenerationSoftware,KiCad,Pcbnew,7.0.10-7.0.10~ubuntu22.04.1*%
%TF.CreationDate,2024-01-25T12:42:20+01:00*%
%TF.ProjectId,heater,68656174-6572-42e6-9b69-6361645f7063,rev?*%
%TF.SameCoordinates,Original*%
%TF.FileFunction,Profile,NP*%
%FSLAX46Y46*%
G04 Gerber Fmt 4.6, Leading zero omitted, Abs format (unit mm)*
G04 Created by KiCad (PCBNEW 7.0.10-7.0.10~ubuntu22.04.1) date 2024-01-25 12:42:20*
%MOMM*%
%LPD*%
G01*
G04 APERTURE LIST*
%TA.AperFunction,Profile*%
%ADD10C,0.100000*%
%TD*%
G04 APERTURE END LIST*
D10*
X178000000Y-53000000D02*
X178000000Y-148000000D01*
X175500000Y-142000000D02*
G75*
G03*
X175500000Y-141000000I0J500000D01*
G01*
X81000000Y-50000000D02*
X175000000Y-50000000D01*
X78000000Y-147000000D02*
X78000000Y-53000000D01*
X78000000Y-147000000D02*
G75*
G03*
X81000000Y-150000000I3000000J0D01*
G01*
X175500000Y-142000000D02*
X162207107Y-142000000D01*
X162207107Y-142000007D02*
G75*
G03*
X161707107Y-142500000I-7J-499993D01*
G01*
X82700000Y-53000000D02*
G75*
G03*
X79300000Y-53000000I-1700000J0D01*
G01*
X79300000Y-53000000D02*
G75*
G03*
X82700000Y-53000000I1700000J0D01*
G01*
X161707107Y-143000000D02*
X161707107Y-142500000D01*
X176700000Y-53000000D02*
G75*
G03*
X173300000Y-53000000I-1700000J0D01*
G01*
X173300000Y-53000000D02*
G75*
G03*
X176700000Y-53000000I1700000J0D01*
G01*
X161707107Y-141000007D02*
G75*
G03*
X160707107Y-142000000I-7J-999993D01*
G01*
X161707107Y-141000000D02*
X175500000Y-141000000D01*
X178000000Y-53000000D02*
G75*
G03*
X175000000Y-50000000I-3000000J0D01*
G01*
X160707107Y-143000000D02*
X160707107Y-142500000D01*
X176000000Y-150000000D02*
X81000000Y-150000000D01*
X176000000Y-150000000D02*
G75*
G03*
X178000000Y-148000000I0J2000000D01*
G01*
X82700000Y-147000000D02*
G75*
G03*
X79300000Y-147000000I-1700000J0D01*
G01*
X79300000Y-147000000D02*
G75*
G03*
X82700000Y-147000000I1700000J0D01*
G01*
X162950000Y-145800000D02*
G75*
G03*
X159550000Y-145800000I-1700000J0D01*
G01*
X159550000Y-145800000D02*
G75*
G03*
X162950000Y-145800000I1700000J0D01*
G01*
X160707107Y-143000000D02*
G75*
G03*
X161707107Y-143000000I500000J0D01*
G01*
X81000000Y-50000000D02*
G75*
G03*
X78000000Y-53000000I0J-3000000D01*
G01*
X160707107Y-142000000D02*
X160707107Y-142500000D01*
M02*
