%TF.GenerationSoftware,KiCad,Pcbnew,7.0.10-7.0.10~ubuntu22.04.1*%
%TF.CreationDate,2024-01-25T12:42:20+01:00*%
%TF.ProjectId,heater,68656174-6572-42e6-9b69-6361645f7063,rev?*%
%TF.SameCoordinates,Original*%
%TF.FileFunction,Legend,Top*%
%TF.FilePolarity,Positive*%
%FSLAX46Y46*%
G04 Gerber Fmt 4.6, Leading zero omitted, Abs format (unit mm)*
G04 Created by KiCad (PCBNEW 7.0.10-7.0.10~ubuntu22.04.1) date 2024-01-25 12:42:20*
%MOMM*%
%LPD*%
G01*
G04 APERTURE LIST*
%ADD10C,0.846666*%
%ADD11C,0.000000*%
%ADD12C,0.150000*%
%ADD13C,0.600000*%
G04 APERTURE END LIST*
D10*
X132592062Y-141911244D02*
X132566671Y-141611174D01*
X124274969Y-137297986D02*
X124250000Y-137000000D01*
X129341305Y-142201481D02*
X129343862Y-141893231D01*
X126026984Y-141325122D02*
X125948504Y-141042987D01*
X131970837Y-139961014D02*
X131683980Y-139441359D01*
X132359138Y-143224092D02*
X132474267Y-142876758D01*
X131413168Y-134935047D02*
X131674521Y-134542731D01*
X127612048Y-136052084D02*
X127730310Y-135707710D01*
X131139307Y-138393956D02*
X131028805Y-138123895D01*
D11*
G36*
X89760444Y-142000402D02*
G01*
X89789537Y-142002432D01*
X89818299Y-142005792D01*
X89846687Y-142010465D01*
X89874659Y-142016433D01*
X89902173Y-142023679D01*
X89929187Y-142032183D01*
X89955659Y-142041928D01*
X89981546Y-142052897D01*
X90006806Y-142065070D01*
X90031397Y-142078431D01*
X90055277Y-142092960D01*
X90078403Y-142108641D01*
X90100734Y-142125455D01*
X90122227Y-142143384D01*
X90142840Y-142162411D01*
X90162531Y-142182517D01*
X90181257Y-142203683D01*
X90198976Y-142225894D01*
X90215647Y-142249129D01*
X90231226Y-142273372D01*
X90245672Y-142298604D01*
X90258943Y-142324808D01*
X90270996Y-142351965D01*
X90281789Y-142380057D01*
X90291280Y-142409067D01*
X90299426Y-142438976D01*
X90306186Y-142469767D01*
X90311518Y-142501421D01*
X90315378Y-142533921D01*
X90317725Y-142567248D01*
X90318517Y-142601385D01*
X90318517Y-142837524D01*
X89430231Y-142837524D01*
X89430648Y-142859064D01*
X89431889Y-142879928D01*
X89433937Y-142900116D01*
X89436775Y-142919627D01*
X89440388Y-142938460D01*
X89444758Y-142956616D01*
X89449869Y-142974093D01*
X89455705Y-142990891D01*
X89462250Y-143007010D01*
X89469486Y-143022448D01*
X89477398Y-143037206D01*
X89485969Y-143051284D01*
X89495182Y-143064679D01*
X89505022Y-143077392D01*
X89515471Y-143089423D01*
X89526513Y-143100771D01*
X89538132Y-143111435D01*
X89550311Y-143121414D01*
X89563034Y-143130709D01*
X89576284Y-143139319D01*
X89590045Y-143147243D01*
X89604301Y-143154481D01*
X89619035Y-143161032D01*
X89634230Y-143166895D01*
X89649870Y-143172071D01*
X89665939Y-143176558D01*
X89682420Y-143180357D01*
X89699297Y-143183466D01*
X89716553Y-143185884D01*
X89734172Y-143187613D01*
X89752137Y-143188650D01*
X89770432Y-143188996D01*
X89791074Y-143188406D01*
X89811851Y-143186650D01*
X89832701Y-143183749D01*
X89853564Y-143179722D01*
X89874377Y-143174592D01*
X89895078Y-143168377D01*
X89915606Y-143161101D01*
X89935899Y-143152782D01*
X89955896Y-143143442D01*
X89975534Y-143133101D01*
X89994751Y-143121780D01*
X90013487Y-143109500D01*
X90031679Y-143096282D01*
X90049266Y-143082145D01*
X90066185Y-143067112D01*
X90082376Y-143051202D01*
X90290418Y-143228208D01*
X90263576Y-143257665D01*
X90235796Y-143284922D01*
X90207129Y-143310022D01*
X90177623Y-143333006D01*
X90147328Y-143353914D01*
X90116292Y-143372788D01*
X90084564Y-143389670D01*
X90052194Y-143404599D01*
X90019230Y-143417618D01*
X89985722Y-143428768D01*
X89951718Y-143438089D01*
X89917269Y-143445624D01*
X89882422Y-143451412D01*
X89847227Y-143455496D01*
X89811733Y-143457916D01*
X89775988Y-143458713D01*
X89720710Y-143456991D01*
X89664879Y-143451528D01*
X89609066Y-143441879D01*
X89553837Y-143427602D01*
X89499760Y-143408251D01*
X89473332Y-143396534D01*
X89447405Y-143383382D01*
X89422051Y-143368739D01*
X89397340Y-143352550D01*
X89373343Y-143334760D01*
X89350132Y-143315313D01*
X89327777Y-143294153D01*
X89306350Y-143271224D01*
X89285921Y-143246472D01*
X89266562Y-143219841D01*
X89248343Y-143191274D01*
X89231336Y-143160718D01*
X89215611Y-143128115D01*
X89201241Y-143093411D01*
X89188294Y-143056551D01*
X89176844Y-143017477D01*
X89166960Y-142976136D01*
X89158714Y-142932471D01*
X89152177Y-142886427D01*
X89147420Y-142837948D01*
X89144513Y-142786979D01*
X89143529Y-142733464D01*
X89144432Y-142682642D01*
X89147099Y-142633974D01*
X89150149Y-142601465D01*
X89430231Y-142601465D01*
X90031814Y-142601465D01*
X90030690Y-142581455D01*
X90028903Y-142562042D01*
X90026467Y-142543228D01*
X90023394Y-142525016D01*
X90019697Y-142507409D01*
X90015389Y-142490409D01*
X90010483Y-142474018D01*
X90004992Y-142458239D01*
X89998928Y-142443075D01*
X89992305Y-142428527D01*
X89985135Y-142414599D01*
X89977431Y-142401294D01*
X89969206Y-142388612D01*
X89960473Y-142376558D01*
X89951245Y-142365134D01*
X89941535Y-142354341D01*
X89931355Y-142344183D01*
X89920719Y-142334662D01*
X89909638Y-142325781D01*
X89898127Y-142317542D01*
X89886198Y-142309948D01*
X89873863Y-142303001D01*
X89861136Y-142296703D01*
X89848030Y-142291058D01*
X89834557Y-142286068D01*
X89820731Y-142281734D01*
X89806563Y-142278061D01*
X89792067Y-142275050D01*
X89777257Y-142272703D01*
X89762144Y-142271024D01*
X89746741Y-142270015D01*
X89731062Y-142269678D01*
X89715375Y-142270015D01*
X89699950Y-142271024D01*
X89684800Y-142272703D01*
X89669940Y-142275050D01*
X89655385Y-142278061D01*
X89641149Y-142281734D01*
X89627246Y-142286067D01*
X89613692Y-142291058D01*
X89600499Y-142296703D01*
X89587683Y-142303000D01*
X89575259Y-142309948D01*
X89563240Y-142317542D01*
X89551641Y-142325781D01*
X89540476Y-142334662D01*
X89529761Y-142344183D01*
X89519508Y-142354341D01*
X89509733Y-142365133D01*
X89500450Y-142376558D01*
X89491674Y-142388612D01*
X89483418Y-142401293D01*
X89475698Y-142414599D01*
X89468528Y-142428527D01*
X89461922Y-142443074D01*
X89455894Y-142458239D01*
X89450459Y-142474017D01*
X89445632Y-142490408D01*
X89441426Y-142507409D01*
X89437857Y-142525016D01*
X89434939Y-142543228D01*
X89432685Y-142562042D01*
X89431111Y-142581455D01*
X89430231Y-142601465D01*
X89150149Y-142601465D01*
X89151467Y-142587425D01*
X89157471Y-142542958D01*
X89165047Y-142500540D01*
X89174133Y-142460134D01*
X89184664Y-142421705D01*
X89196576Y-142385217D01*
X89209806Y-142350635D01*
X89224289Y-142317923D01*
X89239963Y-142287047D01*
X89256763Y-142257970D01*
X89274625Y-142230657D01*
X89293486Y-142205073D01*
X89313282Y-142181182D01*
X89333949Y-142158948D01*
X89355424Y-142138337D01*
X89377642Y-142119313D01*
X89400540Y-142101840D01*
X89424054Y-142085882D01*
X89448121Y-142071405D01*
X89472675Y-142058373D01*
X89497655Y-142046751D01*
X89522996Y-142036502D01*
X89548633Y-142027592D01*
X89574505Y-142019985D01*
X89600546Y-142013646D01*
X89626692Y-142008539D01*
X89679048Y-142001879D01*
X89731062Y-141999722D01*
X89760444Y-142000402D01*
G37*
D10*
X128102898Y-134973491D02*
X128364002Y-134581360D01*
D11*
G36*
X89769358Y-144252369D02*
G01*
X89831165Y-144256718D01*
X89890015Y-144264172D01*
X89918271Y-144269117D01*
X89945716Y-144274901D01*
X89972324Y-144281545D01*
X89998073Y-144289072D01*
X90022937Y-144297501D01*
X90046892Y-144306854D01*
X90069915Y-144317152D01*
X90091981Y-144328416D01*
X90113066Y-144340667D01*
X90133146Y-144353926D01*
X90152196Y-144368215D01*
X90170193Y-144383554D01*
X90187112Y-144399964D01*
X90202928Y-144417466D01*
X90217619Y-144436083D01*
X90231159Y-144455833D01*
X90243524Y-144476740D01*
X90254690Y-144498823D01*
X90264634Y-144522104D01*
X90273330Y-144546604D01*
X90280754Y-144572344D01*
X90286883Y-144599345D01*
X90291692Y-144627628D01*
X90295157Y-144657214D01*
X90297254Y-144688125D01*
X90297958Y-144720381D01*
X90297958Y-145693042D01*
X90011177Y-145693042D01*
X90011177Y-145566518D01*
X90005541Y-145566518D01*
X89994007Y-145584362D01*
X89981467Y-145600963D01*
X89967837Y-145616334D01*
X89953036Y-145630486D01*
X89936982Y-145643434D01*
X89919592Y-145655189D01*
X89900784Y-145665765D01*
X89880476Y-145675173D01*
X89858586Y-145683427D01*
X89835032Y-145690540D01*
X89809730Y-145696523D01*
X89782600Y-145701390D01*
X89753559Y-145705154D01*
X89722525Y-145707826D01*
X89689415Y-145709420D01*
X89654148Y-145709949D01*
X89624756Y-145709401D01*
X89596149Y-145707773D01*
X89568335Y-145705089D01*
X89541325Y-145701372D01*
X89515129Y-145696647D01*
X89489755Y-145690936D01*
X89465215Y-145684263D01*
X89441517Y-145676653D01*
X89418672Y-145668128D01*
X89396689Y-145658712D01*
X89375579Y-145648430D01*
X89355350Y-145637305D01*
X89336012Y-145625360D01*
X89317576Y-145612619D01*
X89300051Y-145599106D01*
X89283447Y-145584844D01*
X89267774Y-145569858D01*
X89253040Y-145554171D01*
X89239258Y-145537806D01*
X89226435Y-145520787D01*
X89214581Y-145503138D01*
X89203708Y-145484882D01*
X89193823Y-145466044D01*
X89184938Y-145446647D01*
X89177061Y-145426714D01*
X89170203Y-145406269D01*
X89164373Y-145385337D01*
X89159581Y-145363940D01*
X89155837Y-145342102D01*
X89153151Y-145319847D01*
X89151532Y-145297199D01*
X89150990Y-145274181D01*
X89151295Y-145260130D01*
X89420786Y-145260130D01*
X89421686Y-145277886D01*
X89424428Y-145295274D01*
X89429074Y-145312187D01*
X89435686Y-145328518D01*
X89439748Y-145336431D01*
X89444324Y-145344159D01*
X89449422Y-145351687D01*
X89455050Y-145359003D01*
X89461216Y-145366092D01*
X89467927Y-145372942D01*
X89475191Y-145379539D01*
X89483016Y-145385870D01*
X89491408Y-145391921D01*
X89500377Y-145397679D01*
X89509930Y-145403130D01*
X89520074Y-145408262D01*
X89530817Y-145413060D01*
X89542167Y-145417511D01*
X89554132Y-145421601D01*
X89566719Y-145425319D01*
X89593790Y-145431578D01*
X89623443Y-145436182D01*
X89655739Y-145439023D01*
X89690740Y-145439994D01*
X89733711Y-145439657D01*
X89773105Y-145438476D01*
X89809031Y-145436200D01*
X89841602Y-145432579D01*
X89856664Y-145430185D01*
X89870929Y-145427360D01*
X89884410Y-145424072D01*
X89897122Y-145420291D01*
X89909078Y-145415985D01*
X89920293Y-145411123D01*
X89930780Y-145405672D01*
X89940553Y-145399602D01*
X89949626Y-145392881D01*
X89958013Y-145385477D01*
X89965728Y-145377360D01*
X89972785Y-145368498D01*
X89979197Y-145358859D01*
X89984979Y-145348412D01*
X89990144Y-145337125D01*
X89994707Y-145324968D01*
X89998680Y-145311908D01*
X90002079Y-145297914D01*
X90004917Y-145282955D01*
X90007207Y-145266999D01*
X90008965Y-145250016D01*
X90010203Y-145231972D01*
X90010936Y-145212838D01*
X90011177Y-145192581D01*
X90011177Y-145088521D01*
X89668277Y-145088521D01*
X89652720Y-145088718D01*
X89637688Y-145089305D01*
X89623179Y-145090277D01*
X89609192Y-145091627D01*
X89595724Y-145093350D01*
X89582773Y-145095441D01*
X89570337Y-145097893D01*
X89558414Y-145100701D01*
X89547002Y-145103860D01*
X89536099Y-145107363D01*
X89525702Y-145111206D01*
X89515811Y-145115381D01*
X89506422Y-145119884D01*
X89497533Y-145124709D01*
X89489143Y-145129851D01*
X89481249Y-145135303D01*
X89473850Y-145141059D01*
X89466943Y-145147115D01*
X89460527Y-145153465D01*
X89454598Y-145160102D01*
X89449156Y-145167021D01*
X89444198Y-145174217D01*
X89439722Y-145181683D01*
X89435725Y-145189415D01*
X89432207Y-145197406D01*
X89429164Y-145205651D01*
X89426596Y-145214144D01*
X89424499Y-145222879D01*
X89422871Y-145231851D01*
X89421711Y-145241054D01*
X89421017Y-145250482D01*
X89420786Y-145260130D01*
X89151295Y-145260130D01*
X89151451Y-145252942D01*
X89152832Y-145231929D01*
X89155133Y-145211172D01*
X89158352Y-145190700D01*
X89162486Y-145170542D01*
X89167535Y-145150728D01*
X89173497Y-145131287D01*
X89180371Y-145112248D01*
X89188155Y-145093641D01*
X89196847Y-145075495D01*
X89206446Y-145057840D01*
X89216950Y-145040705D01*
X89228358Y-145024119D01*
X89240668Y-145008113D01*
X89253879Y-144992714D01*
X89267989Y-144977953D01*
X89282996Y-144963858D01*
X89298900Y-144950460D01*
X89315698Y-144937788D01*
X89333390Y-144925871D01*
X89351972Y-144914738D01*
X89371445Y-144904420D01*
X89391806Y-144894944D01*
X89413054Y-144886341D01*
X89435187Y-144878640D01*
X89458204Y-144871871D01*
X89482103Y-144866062D01*
X89506883Y-144861244D01*
X89532542Y-144857445D01*
X89559078Y-144854695D01*
X89586491Y-144853024D01*
X89614778Y-144852460D01*
X90011177Y-144852460D01*
X90011177Y-144703474D01*
X90010148Y-144679198D01*
X90008853Y-144667805D01*
X90007031Y-144656901D01*
X90004676Y-144646477D01*
X90001781Y-144636527D01*
X89998342Y-144627043D01*
X89994353Y-144618019D01*
X89989808Y-144609447D01*
X89984701Y-144601319D01*
X89979027Y-144593630D01*
X89972781Y-144586372D01*
X89965955Y-144579537D01*
X89958546Y-144573118D01*
X89950547Y-144567109D01*
X89941952Y-144561502D01*
X89932756Y-144556291D01*
X89922953Y-144551467D01*
X89901505Y-144542955D01*
X89877562Y-144535909D01*
X89851079Y-144530272D01*
X89822010Y-144525987D01*
X89790310Y-144522997D01*
X89755935Y-144521245D01*
X89718839Y-144520673D01*
X89691811Y-144521011D01*
X89666541Y-144522047D01*
X89642942Y-144523818D01*
X89620927Y-144526362D01*
X89610487Y-144527935D01*
X89600411Y-144529715D01*
X89590688Y-144531706D01*
X89581307Y-144533913D01*
X89572258Y-144536341D01*
X89563530Y-144538993D01*
X89555111Y-144541875D01*
X89546992Y-144544992D01*
X89539161Y-144548347D01*
X89531607Y-144551946D01*
X89524320Y-144555793D01*
X89517290Y-144559892D01*
X89510504Y-144564248D01*
X89503953Y-144568867D01*
X89497626Y-144573751D01*
X89491511Y-144578906D01*
X89485599Y-144584337D01*
X89479877Y-144590048D01*
X89474337Y-144596043D01*
X89468966Y-144602328D01*
X89463754Y-144608906D01*
X89458690Y-144615783D01*
X89453763Y-144622962D01*
X89448964Y-144630450D01*
X89224094Y-144458999D01*
X89245209Y-144431626D01*
X89267457Y-144406441D01*
X89290849Y-144383385D01*
X89315399Y-144362399D01*
X89341118Y-144343427D01*
X89368020Y-144326410D01*
X89396116Y-144311289D01*
X89425419Y-144298006D01*
X89455941Y-144286504D01*
X89487696Y-144276724D01*
X89520695Y-144268609D01*
X89554950Y-144262099D01*
X89590475Y-144257137D01*
X89627281Y-144253665D01*
X89665382Y-144251624D01*
X89704789Y-144250957D01*
X89769358Y-144252369D01*
G37*
D10*
X132231505Y-140489903D02*
X131970837Y-139961014D01*
X132474267Y-142876758D02*
X132549222Y-142542918D01*
D11*
G36*
X97059455Y-144251446D02*
G01*
X97080382Y-144252899D01*
X97100884Y-144255291D01*
X97120977Y-144258596D01*
X97140677Y-144262791D01*
X97160000Y-144267850D01*
X97178963Y-144273750D01*
X97197580Y-144280464D01*
X97215870Y-144287969D01*
X97233847Y-144296240D01*
X97251528Y-144305253D01*
X97268930Y-144314982D01*
X97286067Y-144325404D01*
X97302958Y-144336493D01*
X97319616Y-144348224D01*
X97336060Y-144360574D01*
X97128018Y-144607986D01*
X97115588Y-144598837D01*
X97103555Y-144590398D01*
X97091853Y-144582654D01*
X97080415Y-144575588D01*
X97069175Y-144569182D01*
X97058067Y-144563420D01*
X97047025Y-144558286D01*
X97035982Y-144553763D01*
X97024872Y-144549835D01*
X97013629Y-144546484D01*
X97002187Y-144543694D01*
X96990478Y-144541449D01*
X96978438Y-144539732D01*
X96965999Y-144538526D01*
X96953095Y-144537814D01*
X96939661Y-144537581D01*
X96913357Y-144538643D01*
X96887321Y-144541858D01*
X96861749Y-144547265D01*
X96836841Y-144554906D01*
X96824696Y-144559576D01*
X96812791Y-144564820D01*
X96801151Y-144570642D01*
X96789799Y-144577048D01*
X96778760Y-144584043D01*
X96768060Y-144591632D01*
X96757722Y-144599820D01*
X96747772Y-144608611D01*
X96738234Y-144618012D01*
X96729133Y-144628027D01*
X96720493Y-144638660D01*
X96712339Y-144649919D01*
X96704695Y-144661806D01*
X96697587Y-144674328D01*
X96691039Y-144687489D01*
X96685076Y-144701295D01*
X96679722Y-144715750D01*
X96675002Y-144730861D01*
X96670940Y-144746631D01*
X96667561Y-144763065D01*
X96664891Y-144780170D01*
X96662953Y-144797950D01*
X96661772Y-144816409D01*
X96661373Y-144835554D01*
X96661373Y-145693042D01*
X96374750Y-145693042D01*
X96374750Y-144267863D01*
X96661373Y-144267863D01*
X96661373Y-144419629D01*
X96667088Y-144419629D01*
X96684407Y-144399212D01*
X96702624Y-144380112D01*
X96721715Y-144362326D01*
X96741654Y-144345857D01*
X96762417Y-144330704D01*
X96783978Y-144316868D01*
X96806314Y-144304348D01*
X96829399Y-144293145D01*
X96853209Y-144283259D01*
X96877719Y-144274690D01*
X96902903Y-144267439D01*
X96928738Y-144261506D01*
X96955199Y-144256891D01*
X96982260Y-144253594D01*
X97009897Y-144251616D01*
X97038086Y-144250957D01*
X97059455Y-144251446D01*
G37*
D10*
X130862138Y-137566089D02*
X130812699Y-137276108D01*
X132587366Y-142221453D02*
X132592062Y-141911244D01*
X131683980Y-139441359D02*
X131397836Y-138921989D01*
D11*
G36*
X93902234Y-131343626D02*
G01*
X93905256Y-131343850D01*
X93908263Y-131344220D01*
X93911250Y-131344731D01*
X93914214Y-131345380D01*
X93917149Y-131346162D01*
X93920051Y-131347076D01*
X93922915Y-131348115D01*
X93925738Y-131349278D01*
X93928515Y-131350560D01*
X93931240Y-131351957D01*
X93933911Y-131353466D01*
X93936521Y-131355083D01*
X93939068Y-131356805D01*
X93941545Y-131358627D01*
X93943950Y-131360546D01*
X93946277Y-131362559D01*
X93948521Y-131364661D01*
X93950679Y-131366848D01*
X93952746Y-131369118D01*
X93954718Y-131371467D01*
X93956589Y-131373890D01*
X93958356Y-131376384D01*
X93960013Y-131378945D01*
X93961558Y-131381570D01*
X93962984Y-131384255D01*
X93964288Y-131386996D01*
X93965465Y-131389789D01*
X93966510Y-131392632D01*
X93967420Y-131395519D01*
X93968190Y-131398448D01*
X93968814Y-131401414D01*
X94220037Y-132751028D01*
X94220671Y-132754018D01*
X94221442Y-132757019D01*
X94223373Y-132763030D01*
X94225797Y-132769023D01*
X94228680Y-132774958D01*
X94231987Y-132780795D01*
X94235684Y-132786496D01*
X94239739Y-132792022D01*
X94244117Y-132797333D01*
X94248784Y-132802390D01*
X94253706Y-132807153D01*
X94258851Y-132811585D01*
X94264183Y-132815645D01*
X94269669Y-132819294D01*
X94275275Y-132822494D01*
X94278112Y-132823912D01*
X94280967Y-132825204D01*
X94283835Y-132826364D01*
X94286712Y-132827386D01*
X95191269Y-133197670D01*
X95196888Y-133200144D01*
X95202848Y-133202211D01*
X95209095Y-133203873D01*
X95215578Y-133205135D01*
X95222244Y-133206001D01*
X95229039Y-133206473D01*
X95235913Y-133206556D01*
X95242812Y-133206253D01*
X95249685Y-133205568D01*
X95256477Y-133204504D01*
X95263138Y-133203064D01*
X95269615Y-133201254D01*
X95275855Y-133199075D01*
X95281806Y-133196532D01*
X95287415Y-133193629D01*
X95292630Y-133190368D01*
X96420152Y-132416621D01*
X96422692Y-132414966D01*
X96425307Y-132413441D01*
X96427991Y-132412043D01*
X96430739Y-132410773D01*
X96433545Y-132409631D01*
X96436404Y-132408615D01*
X96439309Y-132407726D01*
X96442254Y-132406962D01*
X96445235Y-132406323D01*
X96448245Y-132405808D01*
X96454329Y-132405151D01*
X96460462Y-132404987D01*
X96466596Y-132405310D01*
X96472688Y-132406116D01*
X96478689Y-132407402D01*
X96484555Y-132409164D01*
X96487423Y-132410222D01*
X96490239Y-132411397D01*
X96492999Y-132412688D01*
X96495696Y-132414096D01*
X96498325Y-132415620D01*
X96500880Y-132417259D01*
X96503355Y-132419012D01*
X96505744Y-132420880D01*
X96508042Y-132422861D01*
X96510243Y-132424955D01*
X97459806Y-133374518D01*
X97461900Y-133376719D01*
X97463880Y-133379018D01*
X97465745Y-133381408D01*
X97467496Y-133383885D01*
X97469132Y-133386441D01*
X97470651Y-133389072D01*
X97473342Y-133394534D01*
X97475565Y-133400224D01*
X97477317Y-133406097D01*
X97478594Y-133412106D01*
X97479392Y-133418204D01*
X97479709Y-133424346D01*
X97479540Y-133430486D01*
X97478882Y-133436577D01*
X97477732Y-133442573D01*
X97476087Y-133448429D01*
X97475077Y-133451289D01*
X97473942Y-133454097D01*
X97472681Y-133456847D01*
X97471294Y-133459532D01*
X97469780Y-133462148D01*
X97468140Y-133464688D01*
X96707886Y-134572763D01*
X96704616Y-134578001D01*
X96701714Y-134583619D01*
X96699183Y-134589567D01*
X96697026Y-134595793D01*
X96695248Y-134602247D01*
X96693850Y-134608877D01*
X96692836Y-134615632D01*
X96692209Y-134622462D01*
X96691973Y-134629315D01*
X96692132Y-134636140D01*
X96692687Y-134642886D01*
X96693643Y-134649502D01*
X96695002Y-134655938D01*
X96696769Y-134662142D01*
X96698945Y-134668062D01*
X96701536Y-134673649D01*
X97101507Y-135606781D01*
X97103791Y-135612511D01*
X97106600Y-135618188D01*
X97109893Y-135623779D01*
X97113630Y-135629250D01*
X97117773Y-135634567D01*
X97122281Y-135639697D01*
X97127115Y-135644604D01*
X97132236Y-135649257D01*
X97137602Y-135653620D01*
X97143176Y-135657659D01*
X97148916Y-135661342D01*
X97154785Y-135664634D01*
X97160741Y-135667502D01*
X97166745Y-135669911D01*
X97172758Y-135671827D01*
X97178739Y-135673218D01*
X98483584Y-135915867D01*
X98486544Y-135916506D01*
X98489466Y-135917288D01*
X98492346Y-135918210D01*
X98495183Y-135919266D01*
X98497971Y-135920452D01*
X98500706Y-135921764D01*
X98503386Y-135923198D01*
X98506006Y-135924749D01*
X98511053Y-135928184D01*
X98515816Y-135932034D01*
X98520266Y-135936265D01*
X98524373Y-135940841D01*
X98528107Y-135945726D01*
X98531438Y-135950886D01*
X98534336Y-135956285D01*
X98535614Y-135959063D01*
X98536772Y-135961888D01*
X98537807Y-135964756D01*
X98538715Y-135967660D01*
X98539492Y-135970599D01*
X98540136Y-135973566D01*
X98540641Y-135976558D01*
X98541004Y-135979570D01*
X98541222Y-135982598D01*
X98541290Y-135985637D01*
X98541131Y-137328583D01*
X98541055Y-137331616D01*
X98540830Y-137334639D01*
X98540459Y-137337648D01*
X98539947Y-137340638D01*
X98539297Y-137343605D01*
X98538512Y-137346544D01*
X98537597Y-137349450D01*
X98536555Y-137352320D01*
X98535390Y-137355148D01*
X98534105Y-137357930D01*
X98532706Y-137360661D01*
X98531194Y-137363338D01*
X98529575Y-137365954D01*
X98527851Y-137368506D01*
X98526026Y-137370990D01*
X98524105Y-137373400D01*
X98522091Y-137375732D01*
X98519988Y-137377982D01*
X98517799Y-137380145D01*
X98515528Y-137382216D01*
X98513180Y-137384191D01*
X98510757Y-137386066D01*
X98508263Y-137387835D01*
X98505703Y-137389494D01*
X98503080Y-137391040D01*
X98500397Y-137392466D01*
X98497659Y-137393769D01*
X98494869Y-137394944D01*
X98492032Y-137395987D01*
X98489149Y-137396892D01*
X98486227Y-137397656D01*
X98483267Y-137398274D01*
X97210489Y-137635129D01*
X97207492Y-137635743D01*
X97204490Y-137636496D01*
X97201485Y-137637384D01*
X97198484Y-137638402D01*
X97192510Y-137640810D01*
X97186605Y-137643687D01*
X97180808Y-137646997D01*
X97175156Y-137650706D01*
X97169687Y-137654779D01*
X97164441Y-137659180D01*
X97159453Y-137663875D01*
X97154763Y-137668830D01*
X97150409Y-137674008D01*
X97146429Y-137679376D01*
X97142860Y-137684898D01*
X97139740Y-137690540D01*
X97137108Y-137696266D01*
X97135987Y-137699150D01*
X97135002Y-137702042D01*
X96737652Y-138694626D01*
X96735194Y-138700272D01*
X96733144Y-138706251D01*
X96731500Y-138712512D01*
X96730256Y-138719003D01*
X96729409Y-138725672D01*
X96728955Y-138732467D01*
X96728889Y-138739337D01*
X96729208Y-138746230D01*
X96729907Y-138753094D01*
X96730983Y-138759877D01*
X96732431Y-138766529D01*
X96734247Y-138772996D01*
X96736427Y-138779227D01*
X96738968Y-138785171D01*
X96741864Y-138790775D01*
X96745112Y-138795988D01*
X97468139Y-139849533D01*
X97469793Y-139852073D01*
X97471319Y-139854690D01*
X97472716Y-139857376D01*
X97473986Y-139860127D01*
X97475128Y-139862937D01*
X97476144Y-139865800D01*
X97477034Y-139868709D01*
X97477798Y-139871660D01*
X97478437Y-139874646D01*
X97478951Y-139877662D01*
X97479608Y-139883760D01*
X97479773Y-139889907D01*
X97479450Y-139896057D01*
X97478643Y-139902162D01*
X97477357Y-139908178D01*
X97475596Y-139914057D01*
X97474538Y-139916931D01*
X97473363Y-139919754D01*
X97472071Y-139922519D01*
X97470663Y-139925221D01*
X97469140Y-139927854D01*
X97467501Y-139930412D01*
X97465748Y-139932890D01*
X97463880Y-139935282D01*
X97461899Y-139937581D01*
X97459805Y-139939782D01*
X96510083Y-140889345D01*
X96507896Y-140891425D01*
X96505610Y-140893393D01*
X96503231Y-140895248D01*
X96500765Y-140896989D01*
X96498218Y-140898618D01*
X96495595Y-140900131D01*
X96490146Y-140902814D01*
X96484465Y-140905034D01*
X96478599Y-140906786D01*
X96472593Y-140908067D01*
X96466496Y-140908872D01*
X96460353Y-140909196D01*
X96454211Y-140909037D01*
X96448117Y-140908390D01*
X96442117Y-140907249D01*
X96436258Y-140905612D01*
X96433396Y-140904606D01*
X96430586Y-140903475D01*
X96427836Y-140902217D01*
X96425149Y-140900832D01*
X96422533Y-140899320D01*
X96419993Y-140897680D01*
X95385022Y-140187353D01*
X95379819Y-140184114D01*
X95374247Y-140181275D01*
X95368356Y-140178835D01*
X95362196Y-140176796D01*
X95355819Y-140175159D01*
X95349275Y-140173925D01*
X95342615Y-140173095D01*
X95335889Y-140172669D01*
X95329148Y-140172648D01*
X95322443Y-140173035D01*
X95315824Y-140173828D01*
X95309343Y-140175030D01*
X95303049Y-140176642D01*
X95296994Y-140178663D01*
X95291229Y-140181096D01*
X95285803Y-140183940D01*
X94829397Y-140427621D01*
X94826668Y-140428919D01*
X94823916Y-140430060D01*
X94821146Y-140431045D01*
X94818363Y-140431878D01*
X94815572Y-140432558D01*
X94812777Y-140433089D01*
X94809983Y-140433472D01*
X94807195Y-140433708D01*
X94804418Y-140433800D01*
X94801656Y-140433749D01*
X94798914Y-140433556D01*
X94796196Y-140433225D01*
X94793509Y-140432755D01*
X94790856Y-140432150D01*
X94788241Y-140431410D01*
X94785671Y-140430538D01*
X94783149Y-140429536D01*
X94780681Y-140428404D01*
X94778271Y-140427145D01*
X94775923Y-140425761D01*
X94773644Y-140424253D01*
X94771436Y-140422623D01*
X94769306Y-140420873D01*
X94767257Y-140419004D01*
X94765296Y-140417019D01*
X94763425Y-140414919D01*
X94761651Y-140412705D01*
X94759977Y-140410380D01*
X94758410Y-140407945D01*
X94756952Y-140405402D01*
X94755610Y-140402753D01*
X94754388Y-140399999D01*
X93813397Y-138126064D01*
X93812308Y-138123235D01*
X93811364Y-138120364D01*
X93810563Y-138117454D01*
X93809902Y-138114513D01*
X93809380Y-138111545D01*
X93808994Y-138108555D01*
X93808744Y-138105550D01*
X93808627Y-138102534D01*
X93808641Y-138099513D01*
X93808785Y-138096493D01*
X93809056Y-138093477D01*
X93809453Y-138090474D01*
X93809975Y-138087486D01*
X93810619Y-138084521D01*
X93811383Y-138081582D01*
X93812265Y-138078677D01*
X93813265Y-138075810D01*
X93814379Y-138072986D01*
X93815606Y-138070211D01*
X93816945Y-138067491D01*
X93818393Y-138064830D01*
X93819949Y-138062234D01*
X93821610Y-138059710D01*
X93823375Y-138057261D01*
X93825243Y-138054893D01*
X93827210Y-138052612D01*
X93829276Y-138050424D01*
X93831439Y-138048333D01*
X93833697Y-138046345D01*
X93836047Y-138044465D01*
X93838488Y-138042700D01*
X93841019Y-138041053D01*
X93955240Y-137971124D01*
X93963461Y-137965889D01*
X93972238Y-137959913D01*
X93981406Y-137953326D01*
X93990800Y-137946260D01*
X94000252Y-137938844D01*
X94009599Y-137931208D01*
X94018674Y-137923484D01*
X94027312Y-137915800D01*
X94102924Y-137864045D01*
X94175085Y-137807852D01*
X94243599Y-137747416D01*
X94308268Y-137682933D01*
X94368895Y-137614600D01*
X94425283Y-137542611D01*
X94477236Y-137467163D01*
X94524557Y-137388452D01*
X94567048Y-137306673D01*
X94604513Y-137222022D01*
X94636754Y-137134695D01*
X94663575Y-137044888D01*
X94684779Y-136952796D01*
X94700168Y-136858615D01*
X94709546Y-136762541D01*
X94712716Y-136664771D01*
X94710783Y-136588342D01*
X94705048Y-136512916D01*
X94695603Y-136438588D01*
X94682543Y-136365449D01*
X94665959Y-136293594D01*
X94645946Y-136223116D01*
X94622598Y-136154108D01*
X94596006Y-136086663D01*
X94566265Y-136020874D01*
X94533467Y-135956836D01*
X94497707Y-135894641D01*
X94459078Y-135834382D01*
X94417672Y-135776154D01*
X94373583Y-135720048D01*
X94326905Y-135666159D01*
X94277731Y-135614580D01*
X94226153Y-135565404D01*
X94172267Y-135518724D01*
X94116164Y-135474634D01*
X94057938Y-135433227D01*
X93997682Y-135394597D01*
X93935490Y-135358836D01*
X93871456Y-135326038D01*
X93805671Y-135296296D01*
X93738231Y-135269704D01*
X93669227Y-135246355D01*
X93598754Y-135226342D01*
X93526904Y-135209758D01*
X93453772Y-135196697D01*
X93379450Y-135187253D01*
X93304031Y-135181517D01*
X93227610Y-135179585D01*
X93151188Y-135181517D01*
X93075768Y-135187253D01*
X93001445Y-135196697D01*
X92928311Y-135209758D01*
X92856460Y-135226342D01*
X92785984Y-135246355D01*
X92716978Y-135269704D01*
X92649535Y-135296296D01*
X92583748Y-135326038D01*
X92519710Y-135358836D01*
X92457515Y-135394597D01*
X92397256Y-135433227D01*
X92339026Y-135474634D01*
X92282920Y-135518724D01*
X92229029Y-135565404D01*
X92177448Y-135614580D01*
X92128270Y-135666159D01*
X92081589Y-135720048D01*
X92037496Y-135776154D01*
X91996087Y-135834382D01*
X91957454Y-135894641D01*
X91921691Y-135956836D01*
X91888890Y-136020874D01*
X91859146Y-136086663D01*
X91832552Y-136154108D01*
X91809200Y-136223116D01*
X91789185Y-136293594D01*
X91772600Y-136365449D01*
X91759538Y-136438588D01*
X91750092Y-136512916D01*
X91744357Y-136588342D01*
X91742424Y-136664771D01*
X91743221Y-136713856D01*
X91745595Y-136762541D01*
X91749521Y-136810803D01*
X91754975Y-136858615D01*
X91761932Y-136905954D01*
X91770368Y-136952796D01*
X91780257Y-136999115D01*
X91791576Y-137044888D01*
X91804299Y-137090089D01*
X91818401Y-137134695D01*
X91833859Y-137178681D01*
X91850647Y-137222022D01*
X91868742Y-137264694D01*
X91888117Y-137306673D01*
X91930612Y-137388452D01*
X91977936Y-137467164D01*
X92029891Y-137542612D01*
X92086280Y-137614600D01*
X92146905Y-137682933D01*
X92211570Y-137747416D01*
X92280077Y-137807852D01*
X92352228Y-137864045D01*
X92427827Y-137915800D01*
X92436514Y-137923484D01*
X92445621Y-137931208D01*
X92454986Y-137938844D01*
X92464449Y-137946260D01*
X92473849Y-137953326D01*
X92483024Y-137959912D01*
X92491814Y-137965888D01*
X92500059Y-137971124D01*
X92614279Y-138041053D01*
X92616824Y-138042700D01*
X92619279Y-138044465D01*
X92621640Y-138046345D01*
X92623908Y-138048333D01*
X92626080Y-138050424D01*
X92628154Y-138052612D01*
X92632001Y-138057261D01*
X92635436Y-138062234D01*
X92638444Y-138067491D01*
X92641011Y-138072986D01*
X92643122Y-138078677D01*
X92644764Y-138084521D01*
X92645922Y-138090474D01*
X92646581Y-138096493D01*
X92646728Y-138102534D01*
X92646347Y-138108555D01*
X92645955Y-138111545D01*
X92645426Y-138114513D01*
X92644758Y-138117454D01*
X92643949Y-138120364D01*
X92642998Y-138123235D01*
X92641902Y-138126064D01*
X91700833Y-140399920D01*
X91699610Y-140402674D01*
X91698267Y-140405324D01*
X91696809Y-140407868D01*
X91695239Y-140410304D01*
X91693564Y-140412631D01*
X91691788Y-140414847D01*
X91689916Y-140416949D01*
X91687951Y-140418937D01*
X91685901Y-140420808D01*
X91683768Y-140422560D01*
X91681558Y-140424193D01*
X91679276Y-140425703D01*
X91676926Y-140427090D01*
X91674513Y-140428351D01*
X91672043Y-140429485D01*
X91669519Y-140430489D01*
X91666947Y-140431363D01*
X91664331Y-140432104D01*
X91661677Y-140432711D01*
X91658988Y-140433181D01*
X91656271Y-140433513D01*
X91653529Y-140433705D01*
X91650767Y-140433756D01*
X91647991Y-140433663D01*
X91645204Y-140433425D01*
X91642413Y-140433040D01*
X91639621Y-140432506D01*
X91636833Y-140431822D01*
X91634055Y-140430985D01*
X91631291Y-140429994D01*
X91628545Y-140428847D01*
X91625823Y-140427543D01*
X91169417Y-140183861D01*
X91164004Y-140181018D01*
X91158248Y-140178588D01*
X91152200Y-140176570D01*
X91145911Y-140174963D01*
X91139431Y-140173766D01*
X91132812Y-140172977D01*
X91126105Y-140172595D01*
X91119361Y-140172620D01*
X91112631Y-140173049D01*
X91105966Y-140173881D01*
X91099417Y-140175116D01*
X91093035Y-140176751D01*
X91086871Y-140178786D01*
X91080976Y-140181219D01*
X91075401Y-140184049D01*
X91070198Y-140187275D01*
X90035307Y-140897601D01*
X90032759Y-140899241D01*
X90030137Y-140900753D01*
X90027445Y-140902138D01*
X90024690Y-140903396D01*
X90021877Y-140904528D01*
X90019011Y-140905534D01*
X90016100Y-140906415D01*
X90013147Y-140907171D01*
X90010160Y-140907803D01*
X90007145Y-140908311D01*
X90001049Y-140908958D01*
X89994906Y-140909118D01*
X89988763Y-140908793D01*
X89982666Y-140907988D01*
X89976660Y-140906707D01*
X89970792Y-140904955D01*
X89967924Y-140903904D01*
X89965108Y-140902736D01*
X89962350Y-140901452D01*
X89959655Y-140900053D01*
X89957029Y-140898539D01*
X89954477Y-140896911D01*
X89952007Y-140895169D01*
X89949623Y-140893314D01*
X89947331Y-140891346D01*
X89945137Y-140889267D01*
X88995415Y-139939703D01*
X88993328Y-139937502D01*
X88991353Y-139935203D01*
X88989492Y-139932811D01*
X88987745Y-139930333D01*
X88986111Y-139927775D01*
X88984592Y-139925142D01*
X88981901Y-139919675D01*
X88979675Y-139913979D01*
X88977918Y-139908099D01*
X88976635Y-139902084D01*
X88975829Y-139895978D01*
X88975505Y-139889828D01*
X88975667Y-139883681D01*
X88976320Y-139877584D01*
X88977466Y-139871581D01*
X88979112Y-139865721D01*
X88980122Y-139862858D01*
X88981260Y-139860048D01*
X88982523Y-139857297D01*
X88983914Y-139854611D01*
X88985433Y-139851994D01*
X88987081Y-139849454D01*
X89710028Y-138795909D01*
X89713303Y-138790696D01*
X89716222Y-138785092D01*
X89718779Y-138779148D01*
X89720973Y-138772917D01*
X89722799Y-138766450D01*
X89724253Y-138759799D01*
X89725332Y-138753015D01*
X89726032Y-138746151D01*
X89726350Y-138739259D01*
X89726282Y-138732389D01*
X89725824Y-138725593D01*
X89724974Y-138718925D01*
X89723727Y-138712434D01*
X89722079Y-138706173D01*
X89720027Y-138700194D01*
X89717568Y-138694548D01*
X89320217Y-137701964D01*
X89319239Y-137699071D01*
X89318122Y-137696187D01*
X89315496Y-137690461D01*
X89312375Y-137684819D01*
X89308801Y-137679297D01*
X89304811Y-137673929D01*
X89300445Y-137668751D01*
X89295741Y-137663796D01*
X89290739Y-137659101D01*
X89285478Y-137654700D01*
X89279996Y-137650627D01*
X89274332Y-137646918D01*
X89268525Y-137643608D01*
X89262615Y-137640731D01*
X89256640Y-137638323D01*
X89250640Y-137636418D01*
X89247642Y-137635665D01*
X89244652Y-137635050D01*
X87971874Y-137398196D01*
X87968908Y-137397578D01*
X87965979Y-137396814D01*
X87963092Y-137395908D01*
X87960249Y-137394866D01*
X87957456Y-137393690D01*
X87954715Y-137392387D01*
X87952030Y-137390961D01*
X87949405Y-137389416D01*
X87946843Y-137387756D01*
X87944349Y-137385987D01*
X87939578Y-137382137D01*
X87935120Y-137377903D01*
X87931006Y-137373321D01*
X87927265Y-137368427D01*
X87923926Y-137363259D01*
X87921020Y-137357851D01*
X87918575Y-137352241D01*
X87917535Y-137349371D01*
X87916622Y-137346465D01*
X87915839Y-137343526D01*
X87915191Y-137340559D01*
X87914680Y-137337569D01*
X87914310Y-137334560D01*
X87914085Y-137331537D01*
X87914010Y-137328504D01*
X87913930Y-135985558D01*
X87914006Y-135982526D01*
X87914230Y-135979505D01*
X87914598Y-135976499D01*
X87915108Y-135973513D01*
X87915755Y-135970551D01*
X87916536Y-135967618D01*
X87917447Y-135964718D01*
X87918485Y-135961855D01*
X87919645Y-135959034D01*
X87920924Y-135956259D01*
X87922319Y-135953535D01*
X87923826Y-135950867D01*
X87925440Y-135948257D01*
X87927160Y-135945712D01*
X87928980Y-135943235D01*
X87930897Y-135940831D01*
X87932908Y-135938504D01*
X87935008Y-135936258D01*
X87937195Y-135934099D01*
X87939464Y-135932030D01*
X87941812Y-135930056D01*
X87944235Y-135928181D01*
X87946730Y-135926410D01*
X87949292Y-135924747D01*
X87951919Y-135923197D01*
X87954606Y-135921764D01*
X87957350Y-135920452D01*
X87960147Y-135919265D01*
X87962994Y-135918210D01*
X87965887Y-135917288D01*
X87968821Y-135916506D01*
X87971795Y-135915867D01*
X89276561Y-135673218D01*
X89279560Y-135672590D01*
X89282570Y-135671827D01*
X89288605Y-135669911D01*
X89294626Y-135667502D01*
X89300594Y-135664634D01*
X89306471Y-135661342D01*
X89312216Y-135657659D01*
X89317790Y-135653620D01*
X89323154Y-135649257D01*
X89328269Y-135644604D01*
X89333096Y-135639697D01*
X89337594Y-135634567D01*
X89341725Y-135629250D01*
X89345450Y-135623779D01*
X89348729Y-135618188D01*
X89351523Y-135612511D01*
X89352726Y-135609650D01*
X89353793Y-135606781D01*
X89753843Y-134673649D01*
X89756419Y-134668062D01*
X89758584Y-134662142D01*
X89760341Y-134655938D01*
X89761692Y-134649502D01*
X89762643Y-134642886D01*
X89763195Y-134636140D01*
X89763353Y-134629315D01*
X89763120Y-134622462D01*
X89762499Y-134615632D01*
X89761493Y-134608877D01*
X89760106Y-134602247D01*
X89758341Y-134595793D01*
X89756202Y-134589567D01*
X89753692Y-134583619D01*
X89750814Y-134578001D01*
X89747572Y-134572763D01*
X88987239Y-133464688D01*
X88985585Y-133462148D01*
X88984060Y-133459532D01*
X88982664Y-133456847D01*
X88981395Y-133454097D01*
X88980254Y-133451289D01*
X88979241Y-133448429D01*
X88978353Y-133445522D01*
X88977591Y-133442573D01*
X88976955Y-133439590D01*
X88976443Y-133436577D01*
X88975791Y-133430486D01*
X88975631Y-133424346D01*
X88975958Y-133418204D01*
X88976768Y-133412106D01*
X88978056Y-133406097D01*
X88979818Y-133400224D01*
X88980875Y-133397354D01*
X88982049Y-133394534D01*
X88983339Y-133391772D01*
X88984744Y-133389072D01*
X88986265Y-133386441D01*
X88987900Y-133383885D01*
X88989649Y-133381408D01*
X88991511Y-133379018D01*
X88993486Y-133376719D01*
X88995573Y-133374518D01*
X89945217Y-132424955D01*
X89947411Y-132422861D01*
X89949703Y-132420880D01*
X89952087Y-132419012D01*
X89954557Y-132417259D01*
X89957108Y-132415620D01*
X89959734Y-132414096D01*
X89965188Y-132411397D01*
X89970872Y-132409164D01*
X89976740Y-132407403D01*
X89982746Y-132406116D01*
X89988843Y-132405310D01*
X89994986Y-132404987D01*
X90001129Y-132405152D01*
X90007224Y-132405809D01*
X90013227Y-132406962D01*
X90019091Y-132408615D01*
X90021957Y-132409631D01*
X90024770Y-132410774D01*
X90027525Y-132412043D01*
X90030217Y-132413441D01*
X90032840Y-132414966D01*
X90035387Y-132416621D01*
X91162829Y-133190368D01*
X91168030Y-133193629D01*
X91173627Y-133196532D01*
X91179568Y-133199075D01*
X91185799Y-133201254D01*
X91192269Y-133203064D01*
X91198926Y-133204504D01*
X91205716Y-133205568D01*
X91212587Y-133206253D01*
X91219487Y-133206556D01*
X91226364Y-133206473D01*
X91233164Y-133206001D01*
X91239836Y-133205136D01*
X91246327Y-133203874D01*
X91252585Y-133202211D01*
X91258557Y-133200145D01*
X91264191Y-133197671D01*
X92168828Y-132827386D01*
X92174586Y-132825204D01*
X92180287Y-132822494D01*
X92185900Y-132819294D01*
X92191390Y-132815645D01*
X92196723Y-132811585D01*
X92201867Y-132807153D01*
X92206788Y-132802390D01*
X92211452Y-132797333D01*
X92215825Y-132792022D01*
X92219875Y-132786496D01*
X92223568Y-132780795D01*
X92226870Y-132774958D01*
X92229748Y-132769023D01*
X92232169Y-132763030D01*
X92234098Y-132757019D01*
X92235502Y-132751028D01*
X92486645Y-131401414D01*
X92487270Y-131398448D01*
X92488039Y-131395519D01*
X92488949Y-131392632D01*
X92489994Y-131389789D01*
X92491171Y-131386996D01*
X92492475Y-131384255D01*
X92493901Y-131381570D01*
X92495444Y-131378945D01*
X92497102Y-131376384D01*
X92498868Y-131373890D01*
X92502709Y-131369118D01*
X92506931Y-131364661D01*
X92511499Y-131360546D01*
X92516377Y-131356805D01*
X92521529Y-131353466D01*
X92526919Y-131350560D01*
X92529691Y-131349278D01*
X92532510Y-131348115D01*
X92535370Y-131347076D01*
X92538268Y-131346162D01*
X92541197Y-131345380D01*
X92544155Y-131344731D01*
X92547137Y-131344220D01*
X92550137Y-131343850D01*
X92553152Y-131343626D01*
X92556177Y-131343550D01*
X93899202Y-131343550D01*
X93902234Y-131343626D01*
G37*
D10*
X129316100Y-141595332D02*
X129261408Y-141306641D01*
D11*
G36*
X95531097Y-144252369D02*
G01*
X95592894Y-144256718D01*
X95651737Y-144264172D01*
X95679991Y-144269117D01*
X95707434Y-144274901D01*
X95734041Y-144281545D01*
X95759789Y-144289072D01*
X95784653Y-144297501D01*
X95808609Y-144306854D01*
X95831633Y-144317152D01*
X95853700Y-144328416D01*
X95874786Y-144340667D01*
X95894868Y-144353926D01*
X95913920Y-144368215D01*
X95931919Y-144383554D01*
X95948840Y-144399964D01*
X95964659Y-144417466D01*
X95979352Y-144436083D01*
X95992894Y-144455833D01*
X96005262Y-144476740D01*
X96016431Y-144498823D01*
X96026376Y-144522104D01*
X96035074Y-144546604D01*
X96042501Y-144572344D01*
X96048631Y-144599345D01*
X96053442Y-144627628D01*
X96056908Y-144657214D01*
X96059005Y-144688125D01*
X96059710Y-144720381D01*
X96059710Y-145693042D01*
X95772849Y-145693042D01*
X95772849Y-145566518D01*
X95767293Y-145566518D01*
X95755744Y-145584362D01*
X95743188Y-145600963D01*
X95729544Y-145616334D01*
X95714730Y-145630486D01*
X95698663Y-145643434D01*
X95681262Y-145655189D01*
X95662444Y-145665765D01*
X95642128Y-145675173D01*
X95620231Y-145683427D01*
X95596673Y-145690540D01*
X95571370Y-145696523D01*
X95544240Y-145701390D01*
X95515202Y-145705154D01*
X95484174Y-145707826D01*
X95451074Y-145709420D01*
X95415820Y-145709949D01*
X95386428Y-145709401D01*
X95357820Y-145707773D01*
X95330005Y-145705089D01*
X95302994Y-145701372D01*
X95276795Y-145696647D01*
X95251420Y-145690936D01*
X95226877Y-145684263D01*
X95203177Y-145676653D01*
X95180328Y-145668128D01*
X95158343Y-145658712D01*
X95137228Y-145648430D01*
X95116996Y-145637305D01*
X95097655Y-145625360D01*
X95079215Y-145612619D01*
X95061687Y-145599106D01*
X95045079Y-145584844D01*
X95029402Y-145569858D01*
X95014665Y-145554171D01*
X95000878Y-145537806D01*
X94988052Y-145520787D01*
X94976195Y-145503138D01*
X94965318Y-145484882D01*
X94955431Y-145466044D01*
X94946542Y-145446647D01*
X94938663Y-145426714D01*
X94931802Y-145406269D01*
X94925970Y-145385337D01*
X94921177Y-145363940D01*
X94917431Y-145342102D01*
X94914744Y-145319847D01*
X94913124Y-145297199D01*
X94912582Y-145274181D01*
X94912887Y-145260130D01*
X95182616Y-145260130D01*
X95183516Y-145277886D01*
X95186258Y-145295274D01*
X95190904Y-145312187D01*
X95197515Y-145328518D01*
X95201576Y-145336431D01*
X95206152Y-145344159D01*
X95211249Y-145351687D01*
X95216876Y-145359003D01*
X95223041Y-145366092D01*
X95229751Y-145372942D01*
X95237013Y-145379539D01*
X95244836Y-145385870D01*
X95253227Y-145391921D01*
X95262193Y-145397679D01*
X95271744Y-145403130D01*
X95281885Y-145408262D01*
X95292625Y-145413060D01*
X95303972Y-145417511D01*
X95315933Y-145421601D01*
X95328516Y-145425319D01*
X95355578Y-145431578D01*
X95385220Y-145436182D01*
X95417504Y-145439023D01*
X95452491Y-145439994D01*
X95495462Y-145439657D01*
X95534856Y-145438476D01*
X95570782Y-145436200D01*
X95603353Y-145432579D01*
X95618415Y-145430185D01*
X95632680Y-145427360D01*
X95646161Y-145424072D01*
X95658873Y-145420291D01*
X95670829Y-145415985D01*
X95682044Y-145411123D01*
X95692531Y-145405672D01*
X95702304Y-145399602D01*
X95711377Y-145392881D01*
X95719764Y-145385477D01*
X95727479Y-145377360D01*
X95734536Y-145368498D01*
X95740948Y-145358859D01*
X95746730Y-145348412D01*
X95751895Y-145337125D01*
X95756458Y-145324968D01*
X95760432Y-145311908D01*
X95763830Y-145297914D01*
X95766668Y-145282955D01*
X95768959Y-145266999D01*
X95770716Y-145250016D01*
X95771954Y-145231972D01*
X95772687Y-145212838D01*
X95772928Y-145192581D01*
X95772927Y-145192581D01*
X95772927Y-145088521D01*
X95430027Y-145088521D01*
X95414477Y-145088718D01*
X95399452Y-145089305D01*
X95384950Y-145090277D01*
X95370969Y-145091627D01*
X95357507Y-145093350D01*
X95344561Y-145095441D01*
X95332129Y-145097893D01*
X95320211Y-145100701D01*
X95308803Y-145103860D01*
X95297903Y-145107363D01*
X95287510Y-145111206D01*
X95277621Y-145115381D01*
X95268235Y-145119884D01*
X95259349Y-145124709D01*
X95250961Y-145129851D01*
X95243070Y-145135303D01*
X95235672Y-145141059D01*
X95228767Y-145147115D01*
X95222352Y-145153465D01*
X95216424Y-145160102D01*
X95210983Y-145167021D01*
X95206026Y-145174217D01*
X95201550Y-145181683D01*
X95197554Y-145189415D01*
X95194036Y-145197406D01*
X95190994Y-145205651D01*
X95188425Y-145214144D01*
X95186329Y-145222879D01*
X95184701Y-145231851D01*
X95183541Y-145241054D01*
X95182847Y-145250482D01*
X95182616Y-145260130D01*
X94912887Y-145260130D01*
X94913043Y-145252942D01*
X94914426Y-145231929D01*
X94916729Y-145211172D01*
X94919950Y-145190700D01*
X94924088Y-145170542D01*
X94929142Y-145150728D01*
X94935108Y-145131287D01*
X94941987Y-145112248D01*
X94949776Y-145093641D01*
X94958473Y-145075495D01*
X94968078Y-145057840D01*
X94978588Y-145040705D01*
X94990002Y-145024119D01*
X95002318Y-145008113D01*
X95015535Y-144992714D01*
X95029650Y-144977953D01*
X95044663Y-144963858D01*
X95060572Y-144950460D01*
X95077375Y-144937788D01*
X95095071Y-144925871D01*
X95113657Y-144914738D01*
X95133133Y-144904420D01*
X95153497Y-144894944D01*
X95174746Y-144886341D01*
X95196881Y-144878640D01*
X95219898Y-144871871D01*
X95243796Y-144866062D01*
X95268574Y-144861244D01*
X95294230Y-144857445D01*
X95320762Y-144854695D01*
X95348169Y-144853024D01*
X95376449Y-144852460D01*
X95772849Y-144852460D01*
X95772849Y-144703474D01*
X95771820Y-144679198D01*
X95770525Y-144667805D01*
X95768703Y-144656901D01*
X95766347Y-144646477D01*
X95763453Y-144636527D01*
X95760013Y-144627043D01*
X95756024Y-144618019D01*
X95751478Y-144609447D01*
X95746371Y-144601319D01*
X95740696Y-144593630D01*
X95734448Y-144586372D01*
X95727622Y-144579537D01*
X95720211Y-144573118D01*
X95712210Y-144567109D01*
X95703614Y-144561502D01*
X95694416Y-144556291D01*
X95684611Y-144551467D01*
X95663158Y-144542955D01*
X95639208Y-144535909D01*
X95612717Y-144530272D01*
X95583640Y-144525987D01*
X95551929Y-144522997D01*
X95517542Y-144521245D01*
X95480432Y-144520673D01*
X95453406Y-144521011D01*
X95428140Y-144522047D01*
X95404549Y-144523818D01*
X95382545Y-144526362D01*
X95372111Y-144527935D01*
X95362041Y-144529715D01*
X95352324Y-144531706D01*
X95342950Y-144533913D01*
X95333908Y-144536341D01*
X95325187Y-144538993D01*
X95316776Y-144541875D01*
X95308664Y-144544992D01*
X95300840Y-144548347D01*
X95293294Y-144551946D01*
X95286014Y-144555793D01*
X95278991Y-144559892D01*
X95272212Y-144564248D01*
X95265668Y-144568867D01*
X95259346Y-144573751D01*
X95253238Y-144578906D01*
X95247330Y-144584337D01*
X95241614Y-144590048D01*
X95236078Y-144596043D01*
X95230710Y-144602328D01*
X95225501Y-144608906D01*
X95220440Y-144615783D01*
X95215514Y-144622962D01*
X95210715Y-144630450D01*
X94985766Y-144458999D01*
X95006883Y-144431626D01*
X95029136Y-144406441D01*
X95052535Y-144383385D01*
X95077094Y-144362399D01*
X95102825Y-144343427D01*
X95129738Y-144326410D01*
X95157845Y-144311289D01*
X95187160Y-144298006D01*
X95217693Y-144286504D01*
X95249457Y-144276724D01*
X95282462Y-144268609D01*
X95316722Y-144262099D01*
X95352248Y-144257137D01*
X95389052Y-144253665D01*
X95427145Y-144251624D01*
X95466540Y-144250957D01*
X95531097Y-144252369D01*
G37*
D10*
X127851473Y-138412159D02*
X127737911Y-138144884D01*
D11*
G36*
X134914080Y-146845326D02*
G01*
X121684913Y-146845326D01*
X121684913Y-145522409D01*
X134914080Y-145522409D01*
X134914080Y-146845326D01*
G37*
D10*
X128116400Y-138934360D02*
X127851473Y-138412159D01*
X132549222Y-142542918D02*
X132587366Y-142221453D01*
X130790339Y-136977250D02*
X130798422Y-136668396D01*
X131397836Y-138921989D02*
X131139307Y-138393956D01*
X132439084Y-141036973D02*
X132343612Y-140760606D01*
X128960123Y-143560835D02*
X129117838Y-143199759D01*
X127892797Y-135348560D02*
X128102898Y-134973491D01*
X131994907Y-143963716D02*
X132200472Y-143586039D01*
X129117838Y-143199759D02*
X129231681Y-142853603D01*
X125172782Y-139454323D02*
X124879455Y-138937372D01*
D11*
G36*
X95563697Y-142865545D02*
G01*
X95564048Y-142883485D01*
X95565094Y-142900943D01*
X95566819Y-142917912D01*
X95569209Y-142934388D01*
X95572250Y-142950364D01*
X95575927Y-142965834D01*
X95580226Y-142980794D01*
X95585131Y-142995237D01*
X95590630Y-143009158D01*
X95596708Y-143022550D01*
X95603349Y-143035409D01*
X95610540Y-143047728D01*
X95618266Y-143059502D01*
X95626512Y-143070725D01*
X95635265Y-143081391D01*
X95644510Y-143091495D01*
X95654232Y-143101031D01*
X95664418Y-143109993D01*
X95675051Y-143118375D01*
X95686119Y-143126173D01*
X95697607Y-143133379D01*
X95709500Y-143139988D01*
X95721783Y-143145996D01*
X95734443Y-143151395D01*
X95747465Y-143156180D01*
X95760835Y-143160346D01*
X95774537Y-143163886D01*
X95788559Y-143166796D01*
X95802884Y-143169069D01*
X95817499Y-143170700D01*
X95832390Y-143171682D01*
X95847541Y-143172011D01*
X95862455Y-143171682D01*
X95877122Y-143170700D01*
X95891529Y-143169069D01*
X95905660Y-143166796D01*
X95919499Y-143163886D01*
X95933034Y-143160346D01*
X95946247Y-143156180D01*
X95959125Y-143151395D01*
X95971653Y-143145996D01*
X95983815Y-143139988D01*
X95995597Y-143133379D01*
X96006984Y-143126173D01*
X96017960Y-143118375D01*
X96028512Y-143109993D01*
X96038624Y-143101031D01*
X96048281Y-143091495D01*
X96057468Y-143081391D01*
X96066170Y-143070725D01*
X96074373Y-143059502D01*
X96082062Y-143047728D01*
X96089221Y-143035409D01*
X96095836Y-143022550D01*
X96101891Y-143009158D01*
X96107373Y-142995237D01*
X96112265Y-142980794D01*
X96116554Y-142965834D01*
X96120223Y-142950364D01*
X96123259Y-142934388D01*
X96125646Y-142917912D01*
X96127370Y-142900943D01*
X96128415Y-142883485D01*
X96128767Y-142865545D01*
X96128767Y-142016628D01*
X96415390Y-142016628D01*
X96415390Y-143441966D01*
X96128767Y-143441966D01*
X96128767Y-143290042D01*
X96123211Y-143290042D01*
X96105890Y-143310458D01*
X96087673Y-143329559D01*
X96068588Y-143347344D01*
X96048665Y-143363813D01*
X96027934Y-143378966D01*
X96006424Y-143392803D01*
X95984165Y-143405323D01*
X95961186Y-143416526D01*
X95937518Y-143426411D01*
X95913188Y-143434980D01*
X95888227Y-143442231D01*
X95862665Y-143448164D01*
X95836530Y-143452779D01*
X95809854Y-143456075D01*
X95782664Y-143458054D01*
X95754990Y-143458713D01*
X95733835Y-143458211D01*
X95712566Y-143456709D01*
X95669893Y-143450715D01*
X95627383Y-143440760D01*
X95606318Y-143434307D01*
X95585449Y-143426874D01*
X95564826Y-143418465D01*
X95544502Y-143409085D01*
X95524528Y-143398735D01*
X95504955Y-143387421D01*
X95485834Y-143375146D01*
X95467218Y-143361912D01*
X95449158Y-143347725D01*
X95431706Y-143332587D01*
X95414912Y-143316502D01*
X95398828Y-143299474D01*
X95383506Y-143281506D01*
X95368997Y-143262602D01*
X95355353Y-143242765D01*
X95342626Y-143222000D01*
X95330866Y-143200309D01*
X95320125Y-143177697D01*
X95310455Y-143154166D01*
X95301908Y-143129721D01*
X95294534Y-143104365D01*
X95288385Y-143078102D01*
X95283513Y-143050936D01*
X95279970Y-143022869D01*
X95277806Y-142993905D01*
X95277073Y-142964049D01*
X95277074Y-142964049D01*
X95277074Y-142016628D01*
X95563697Y-142016628D01*
X95563697Y-142865545D01*
G37*
D10*
X125998201Y-142877872D02*
X126071418Y-142544619D01*
D12*
X128000000Y-100000000D02*
X121000000Y-100000000D01*
D10*
X132566671Y-141611174D02*
X132514558Y-141320123D01*
D12*
X128000000Y-100000000D02*
X128000000Y-107000000D01*
D10*
X124863411Y-134960901D02*
X125124496Y-134568660D01*
X125948504Y-141042987D02*
X125849857Y-140767691D01*
X125466817Y-139971560D02*
X125172782Y-139454323D01*
X129084787Y-140752318D02*
X128969635Y-140484400D01*
X129261408Y-141306641D02*
X129183175Y-141026017D01*
X126109880Y-141914423D02*
X126081907Y-141615225D01*
X127641468Y-137871968D02*
X127565532Y-137592271D01*
D11*
G36*
X87000000Y-142000000D02*
G01*
X87020032Y-142000818D01*
X87039550Y-142002159D01*
X87058562Y-142004003D01*
X87077075Y-142006331D01*
X87095094Y-142009124D01*
X87112627Y-142012363D01*
X87129680Y-142016029D01*
X87146259Y-142020103D01*
X87162373Y-142024566D01*
X87178026Y-142029399D01*
X87193227Y-142034582D01*
X87207981Y-142040097D01*
X87222295Y-142045924D01*
X87236176Y-142052045D01*
X87249631Y-142058440D01*
X87275288Y-142071978D01*
X87299320Y-142086384D01*
X87321779Y-142101506D01*
X87342720Y-142117192D01*
X87362194Y-142133290D01*
X87380257Y-142149646D01*
X87396961Y-142166107D01*
X87412360Y-142182523D01*
X87432161Y-142205203D01*
X87450476Y-142228096D01*
X87467334Y-142251482D01*
X87482764Y-142275642D01*
X87496795Y-142300856D01*
X87509455Y-142327404D01*
X87520773Y-142355567D01*
X87530777Y-142385624D01*
X87539498Y-142417855D01*
X87546962Y-142452542D01*
X87553199Y-142489964D01*
X87558238Y-142530401D01*
X87562106Y-142574134D01*
X87564834Y-142621443D01*
X87566450Y-142672608D01*
X87566982Y-142727909D01*
X87566450Y-142783673D01*
X87564834Y-142835247D01*
X87562106Y-142882913D01*
X87558238Y-142926956D01*
X87553199Y-142967659D01*
X87546962Y-143005306D01*
X87539498Y-143040181D01*
X87530777Y-143072566D01*
X87520773Y-143102746D01*
X87509455Y-143131004D01*
X87496795Y-143157624D01*
X87482764Y-143182889D01*
X87467334Y-143207083D01*
X87450476Y-143230489D01*
X87432161Y-143253391D01*
X87412360Y-143276073D01*
X87396961Y-143292487D01*
X87380257Y-143308943D01*
X87362194Y-143325291D01*
X87342720Y-143341378D01*
X87321779Y-143357052D01*
X87299320Y-143372161D01*
X87275288Y-143386553D01*
X87249631Y-143400076D01*
X87222295Y-143412577D01*
X87193227Y-143423905D01*
X87162373Y-143433908D01*
X87129680Y-143442432D01*
X87095094Y-143449328D01*
X87058562Y-143454441D01*
X87020032Y-143457621D01*
X86979449Y-143458714D01*
X86958890Y-143458438D01*
X86938852Y-143457621D01*
X86919327Y-143456282D01*
X86900309Y-143454441D01*
X86881791Y-143452117D01*
X86863767Y-143449328D01*
X86846229Y-143446093D01*
X86829172Y-143442433D01*
X86812588Y-143438364D01*
X86796471Y-143433908D01*
X86780814Y-143429082D01*
X86765611Y-143423905D01*
X86750854Y-143418398D01*
X86736537Y-143412578D01*
X86722654Y-143406464D01*
X86709197Y-143400076D01*
X86683536Y-143386554D01*
X86659502Y-143372162D01*
X86637041Y-143357053D01*
X86616100Y-143341379D01*
X86596624Y-143325292D01*
X86578561Y-143308944D01*
X86561857Y-143292487D01*
X86546458Y-143276073D01*
X86526658Y-143253392D01*
X86508346Y-143230492D01*
X86491491Y-143207089D01*
X86476066Y-143182899D01*
X86462041Y-143157639D01*
X86449388Y-143131024D01*
X86438077Y-143102771D01*
X86428080Y-143072595D01*
X86419368Y-143040213D01*
X86411911Y-143005341D01*
X86405680Y-142967694D01*
X86400647Y-142926989D01*
X86396784Y-142882942D01*
X86394060Y-142835269D01*
X86392446Y-142783686D01*
X86391915Y-142727909D01*
X86678617Y-142727909D01*
X86678820Y-142765179D01*
X86679448Y-142799139D01*
X86680530Y-142830042D01*
X86682094Y-142858139D01*
X86684169Y-142883682D01*
X86686784Y-142906922D01*
X86689967Y-142928111D01*
X86693748Y-142947500D01*
X86698155Y-142965342D01*
X86703217Y-142981887D01*
X86708962Y-142997388D01*
X86715419Y-143012096D01*
X86722617Y-143026263D01*
X86730585Y-143040140D01*
X86739351Y-143053979D01*
X86748944Y-143068031D01*
X86757397Y-143078945D01*
X86766912Y-143089481D01*
X86777433Y-143099594D01*
X86788900Y-143109238D01*
X86801258Y-143118370D01*
X86814447Y-143126944D01*
X86828411Y-143134915D01*
X86843092Y-143142237D01*
X86858433Y-143148867D01*
X86874376Y-143154759D01*
X86890863Y-143159868D01*
X86907836Y-143164149D01*
X86925239Y-143167557D01*
X86943014Y-143170046D01*
X86961103Y-143171573D01*
X86979449Y-143172092D01*
X86997780Y-143171572D01*
X87015857Y-143170043D01*
X87033622Y-143167550D01*
X87051016Y-143164137D01*
X87067984Y-143159852D01*
X87084466Y-143154738D01*
X87100406Y-143148841D01*
X87115746Y-143142207D01*
X87130428Y-143134881D01*
X87144394Y-143126909D01*
X87157589Y-143118335D01*
X87169952Y-143109205D01*
X87181428Y-143099564D01*
X87191959Y-143089458D01*
X87201487Y-143078932D01*
X87205856Y-143073525D01*
X87209954Y-143068031D01*
X87219546Y-143053980D01*
X87228309Y-143040145D01*
X87236273Y-143026281D01*
X87243466Y-143012140D01*
X87249917Y-142997473D01*
X87255656Y-142982034D01*
X87260710Y-142965575D01*
X87265109Y-142947847D01*
X87268883Y-142928605D01*
X87272059Y-142907600D01*
X87274667Y-142884585D01*
X87276737Y-142859311D01*
X87278295Y-142831532D01*
X87279373Y-142801001D01*
X87280201Y-142730688D01*
X87279999Y-142693417D01*
X87279373Y-142659452D01*
X87278295Y-142628542D01*
X87276737Y-142600436D01*
X87274667Y-142574883D01*
X87272059Y-142551633D01*
X87268883Y-142530435D01*
X87265109Y-142511037D01*
X87260710Y-142493189D01*
X87255656Y-142476639D01*
X87249917Y-142461138D01*
X87243466Y-142446433D01*
X87236273Y-142432274D01*
X87228309Y-142418411D01*
X87219546Y-142404591D01*
X87209954Y-142390565D01*
X87201487Y-142379651D01*
X87191959Y-142369115D01*
X87181428Y-142359003D01*
X87169952Y-142349358D01*
X87157589Y-142340226D01*
X87144394Y-142331652D01*
X87130428Y-142323682D01*
X87115745Y-142316359D01*
X87100406Y-142309729D01*
X87084466Y-142303837D01*
X87067984Y-142298728D01*
X87051016Y-142294448D01*
X87033622Y-142291040D01*
X87015857Y-142288550D01*
X86997780Y-142287023D01*
X86979449Y-142286504D01*
X86961103Y-142287024D01*
X86943014Y-142288553D01*
X86925239Y-142291047D01*
X86907836Y-142294459D01*
X86890862Y-142298745D01*
X86874376Y-142303858D01*
X86858433Y-142309755D01*
X86843092Y-142316389D01*
X86828411Y-142323715D01*
X86814447Y-142331688D01*
X86801258Y-142340262D01*
X86788900Y-142349392D01*
X86777433Y-142359032D01*
X86766912Y-142369138D01*
X86757397Y-142379664D01*
X86753034Y-142385071D01*
X86748944Y-142390565D01*
X86739351Y-142404590D01*
X86730585Y-142418405D01*
X86722617Y-142432256D01*
X86715419Y-142446389D01*
X86708962Y-142461053D01*
X86703217Y-142476493D01*
X86698155Y-142492956D01*
X86693748Y-142510690D01*
X86689967Y-142529940D01*
X86686784Y-142550955D01*
X86684169Y-142573980D01*
X86682094Y-142599264D01*
X86680530Y-142627051D01*
X86679448Y-142657590D01*
X86678617Y-142727909D01*
X86391915Y-142727909D01*
X86392446Y-142672609D01*
X86394060Y-142621446D01*
X86396784Y-142574141D01*
X86400647Y-142530412D01*
X86405680Y-142489980D01*
X86411911Y-142452563D01*
X86419368Y-142417881D01*
X86428080Y-142385653D01*
X86438077Y-142355600D01*
X86449388Y-142327439D01*
X86462041Y-142300891D01*
X86476066Y-142275676D01*
X86491491Y-142251511D01*
X86508346Y-142228118D01*
X86526658Y-142205216D01*
X86546458Y-142182523D01*
X86561857Y-142166108D01*
X86578561Y-142149646D01*
X86596624Y-142133290D01*
X86616100Y-142117193D01*
X86637041Y-142101507D01*
X86659502Y-142086384D01*
X86683536Y-142071978D01*
X86709197Y-142058441D01*
X86736537Y-142045925D01*
X86765611Y-142034582D01*
X86796471Y-142024566D01*
X86829172Y-142016030D01*
X86863767Y-142009124D01*
X86900309Y-142004003D01*
X86938852Y-142000818D01*
X86979449Y-141999723D01*
X87000000Y-142000000D01*
G37*
D10*
X124372813Y-136041043D02*
X124490960Y-135695965D01*
D11*
G36*
X97958294Y-144251557D02*
G01*
X97987386Y-144253586D01*
X98016147Y-144256946D01*
X98044533Y-144261620D01*
X98072504Y-144267588D01*
X98100016Y-144274832D01*
X98127027Y-144283336D01*
X98153496Y-144293080D01*
X98179380Y-144304048D01*
X98204637Y-144316220D01*
X98229225Y-144329579D01*
X98253101Y-144344107D01*
X98276224Y-144359785D01*
X98298551Y-144376597D01*
X98320041Y-144394523D01*
X98340650Y-144413546D01*
X98360337Y-144433647D01*
X98379059Y-144454810D01*
X98396775Y-144477015D01*
X98413442Y-144500245D01*
X98429018Y-144524482D01*
X98443461Y-144549707D01*
X98456729Y-144575903D01*
X98468779Y-144603052D01*
X98479569Y-144631136D01*
X98489057Y-144660136D01*
X98497202Y-144690035D01*
X98503960Y-144720815D01*
X98509290Y-144752457D01*
X98513149Y-144784944D01*
X98515496Y-144818258D01*
X98516287Y-144852380D01*
X98516287Y-145088680D01*
X97628160Y-145088680D01*
X97628577Y-145110206D01*
X97629817Y-145131056D01*
X97631864Y-145151231D01*
X97634701Y-145170730D01*
X97638312Y-145189553D01*
X97642680Y-145207698D01*
X97647789Y-145225166D01*
X97653623Y-145241956D01*
X97660164Y-145258066D01*
X97667398Y-145273498D01*
X97675306Y-145288249D01*
X97683874Y-145302320D01*
X97693083Y-145315710D01*
X97702919Y-145328418D01*
X97713365Y-145340445D01*
X97724403Y-145351788D01*
X97736018Y-145362449D01*
X97748194Y-145372426D01*
X97760913Y-145381718D01*
X97774160Y-145390325D01*
X97787918Y-145398248D01*
X97802170Y-145405484D01*
X97816900Y-145412033D01*
X97832093Y-145417896D01*
X97847730Y-145423071D01*
X97863797Y-145427557D01*
X97880276Y-145431355D01*
X97897150Y-145434464D01*
X97914405Y-145436883D01*
X97932023Y-145438611D01*
X97949987Y-145439648D01*
X97968282Y-145439994D01*
X97988897Y-145439406D01*
X98009652Y-145437655D01*
X98030485Y-145434760D01*
X98051336Y-145430742D01*
X98072140Y-145425621D01*
X98092837Y-145419417D01*
X98113365Y-145412150D01*
X98133660Y-145403839D01*
X98153661Y-145394505D01*
X98173307Y-145384168D01*
X98192534Y-145372848D01*
X98211281Y-145360565D01*
X98229486Y-145347338D01*
X98247086Y-145333189D01*
X98264020Y-145318136D01*
X98280225Y-145302199D01*
X98488267Y-145479364D01*
X98461425Y-145508820D01*
X98433646Y-145536078D01*
X98404980Y-145561178D01*
X98375475Y-145584162D01*
X98345180Y-145605070D01*
X98314146Y-145623944D01*
X98282421Y-145640826D01*
X98250054Y-145655756D01*
X98217094Y-145668775D01*
X98183591Y-145679925D01*
X98149594Y-145689246D01*
X98115152Y-145696780D01*
X98080315Y-145702569D01*
X98045130Y-145706653D01*
X98009648Y-145709073D01*
X97973918Y-145709870D01*
X97918626Y-145708148D01*
X97862783Y-145702684D01*
X97806959Y-145693035D01*
X97751721Y-145678756D01*
X97697637Y-145659402D01*
X97671205Y-145647684D01*
X97645275Y-145634530D01*
X97619918Y-145619885D01*
X97595205Y-145603693D01*
X97571206Y-145585900D01*
X97547992Y-145566449D01*
X97525636Y-145545285D01*
X97504207Y-145522352D01*
X97483777Y-145497595D01*
X97464417Y-145470958D01*
X97446197Y-145442385D01*
X97429189Y-145411822D01*
X97413464Y-145379212D01*
X97399092Y-145344500D01*
X97386146Y-145307630D01*
X97374695Y-145268547D01*
X97364811Y-145227196D01*
X97356565Y-145183520D01*
X97350028Y-145137464D01*
X97345271Y-145088972D01*
X97342364Y-145037990D01*
X97341379Y-144984461D01*
X97342283Y-144933639D01*
X97344951Y-144884972D01*
X97348002Y-144852459D01*
X97628160Y-144852459D01*
X98229664Y-144852459D01*
X98228547Y-144832463D01*
X98226766Y-144813062D01*
X98224335Y-144794259D01*
X98221267Y-144776057D01*
X98217574Y-144758457D01*
X98213269Y-144741462D01*
X98208365Y-144725076D01*
X98202875Y-144709301D01*
X98196813Y-144694139D01*
X98190190Y-144679592D01*
X98183020Y-144665665D01*
X98175316Y-144652358D01*
X98167091Y-144639675D01*
X98158357Y-144627619D01*
X98149127Y-144616191D01*
X98139415Y-144605395D01*
X98129233Y-144595233D01*
X98118595Y-144585708D01*
X98107512Y-144576822D01*
X98095998Y-144568579D01*
X98084066Y-144560979D01*
X98071729Y-144554027D01*
X98059000Y-144547725D01*
X98045891Y-144542075D01*
X98032416Y-144537080D01*
X98018587Y-144532742D01*
X98004418Y-144529065D01*
X97989921Y-144526051D01*
X97975109Y-144523701D01*
X97959995Y-144522020D01*
X97944591Y-144521010D01*
X97928912Y-144520672D01*
X97913225Y-144521010D01*
X97897799Y-144522020D01*
X97882649Y-144523701D01*
X97867790Y-144526051D01*
X97853235Y-144529065D01*
X97838999Y-144532742D01*
X97825097Y-144537080D01*
X97811543Y-144542075D01*
X97798351Y-144547725D01*
X97785536Y-144554027D01*
X97773112Y-144560979D01*
X97761094Y-144568578D01*
X97749496Y-144576822D01*
X97738333Y-144585708D01*
X97727619Y-144595233D01*
X97717368Y-144605395D01*
X97707595Y-144616191D01*
X97698315Y-144627618D01*
X97689541Y-144639675D01*
X97681288Y-144652358D01*
X97673571Y-144665664D01*
X97666404Y-144679592D01*
X97659801Y-144694138D01*
X97653778Y-144709300D01*
X97648347Y-144725076D01*
X97643525Y-144741462D01*
X97639324Y-144758456D01*
X97635761Y-144776056D01*
X97632848Y-144794259D01*
X97630601Y-144813062D01*
X97629033Y-144832463D01*
X97628160Y-144852459D01*
X97348002Y-144852459D01*
X97349319Y-144838425D01*
X97355325Y-144793962D01*
X97362903Y-144751547D01*
X97371991Y-144711145D01*
X97382523Y-144672720D01*
X97394438Y-144636238D01*
X97407670Y-144601662D01*
X97422156Y-144568956D01*
X97437832Y-144538086D01*
X97454634Y-144509016D01*
X97472499Y-144481711D01*
X97491362Y-144456134D01*
X97511161Y-144432250D01*
X97531830Y-144410024D01*
X97553306Y-144389420D01*
X97575526Y-144370403D01*
X97598425Y-144352937D01*
X97621940Y-144336987D01*
X97646006Y-144322517D01*
X97670561Y-144309491D01*
X97695540Y-144297875D01*
X97720880Y-144287632D01*
X97746516Y-144278728D01*
X97772384Y-144271125D01*
X97798422Y-144264790D01*
X97824565Y-144259687D01*
X97876911Y-144253032D01*
X97928912Y-144250877D01*
X97958294Y-144251557D01*
G37*
D10*
X124500126Y-138142739D02*
X124403422Y-137868227D01*
X131028805Y-138123895D02*
X130935294Y-137848312D01*
X128499521Y-144332313D02*
X128755146Y-143937972D01*
X127565532Y-137592271D02*
X127513491Y-137304650D01*
X132343612Y-140760606D02*
X132231505Y-140489903D01*
D11*
G36*
X99505141Y-142000402D02*
G01*
X99534222Y-142002432D01*
X99562974Y-142005792D01*
X99591355Y-142010465D01*
X99619321Y-142016433D01*
X99646832Y-142023679D01*
X99673844Y-142032183D01*
X99700314Y-142041928D01*
X99726202Y-142052897D01*
X99751464Y-142065070D01*
X99776058Y-142078431D01*
X99799942Y-142092960D01*
X99823074Y-142108641D01*
X99845411Y-142125455D01*
X99866910Y-142143384D01*
X99887530Y-142162411D01*
X99907229Y-142182517D01*
X99925963Y-142203683D01*
X99943690Y-142225894D01*
X99960369Y-142249129D01*
X99975957Y-142273372D01*
X99990412Y-142298604D01*
X100003690Y-142324808D01*
X100015751Y-142351965D01*
X100026551Y-142380057D01*
X100036048Y-142409067D01*
X100044201Y-142438976D01*
X100050966Y-142469767D01*
X100056301Y-142501421D01*
X100060165Y-142533921D01*
X100062514Y-142567248D01*
X100063306Y-142601385D01*
X100063306Y-142837524D01*
X99175020Y-142837524D01*
X99175437Y-142859064D01*
X99176678Y-142879928D01*
X99178724Y-142900116D01*
X99181561Y-142919627D01*
X99185172Y-142938460D01*
X99189540Y-142956616D01*
X99194649Y-142974093D01*
X99200483Y-142990891D01*
X99207024Y-143007010D01*
X99214258Y-143022448D01*
X99222166Y-143037206D01*
X99230734Y-143051284D01*
X99239944Y-143064679D01*
X99249779Y-143077392D01*
X99260225Y-143089423D01*
X99271263Y-143100771D01*
X99282878Y-143111435D01*
X99295054Y-143121414D01*
X99307773Y-143130709D01*
X99321020Y-143139319D01*
X99334778Y-143147243D01*
X99349030Y-143154481D01*
X99363761Y-143161032D01*
X99378953Y-143166895D01*
X99394591Y-143172071D01*
X99410657Y-143176558D01*
X99427136Y-143180357D01*
X99444011Y-143183466D01*
X99461266Y-143185884D01*
X99478884Y-143187613D01*
X99496848Y-143188650D01*
X99515143Y-143188996D01*
X99535784Y-143188406D01*
X99556558Y-143186650D01*
X99577405Y-143183749D01*
X99598263Y-143179722D01*
X99619071Y-143174592D01*
X99639768Y-143168377D01*
X99660291Y-143161101D01*
X99680580Y-143152782D01*
X99700573Y-143143442D01*
X99720209Y-143133101D01*
X99739427Y-143121780D01*
X99758164Y-143109500D01*
X99776360Y-143096282D01*
X99793953Y-143082145D01*
X99810883Y-143067112D01*
X99827087Y-143051202D01*
X100035129Y-143228208D01*
X100008313Y-143257665D01*
X99980553Y-143284922D01*
X99951900Y-143310022D01*
X99922403Y-143333006D01*
X99892112Y-143353914D01*
X99861077Y-143372788D01*
X99829347Y-143389670D01*
X99796974Y-143404599D01*
X99764006Y-143417618D01*
X99730494Y-143428768D01*
X99696487Y-143438089D01*
X99662035Y-143445624D01*
X99627189Y-143451412D01*
X99591997Y-143455496D01*
X99556510Y-143457916D01*
X99520779Y-143458713D01*
X99465486Y-143456991D01*
X99409643Y-143451528D01*
X99353819Y-143441879D01*
X99298581Y-143427602D01*
X99244497Y-143408251D01*
X99218065Y-143396534D01*
X99192136Y-143383382D01*
X99166778Y-143368739D01*
X99142065Y-143352550D01*
X99118066Y-143334760D01*
X99094853Y-143315313D01*
X99072496Y-143294153D01*
X99051067Y-143271224D01*
X99030637Y-143246472D01*
X99011277Y-143219841D01*
X98993057Y-143191274D01*
X98976049Y-143160718D01*
X98960324Y-143128115D01*
X98945953Y-143093411D01*
X98933006Y-143056551D01*
X98921555Y-143017477D01*
X98911671Y-142976136D01*
X98903425Y-142932471D01*
X98896888Y-142886427D01*
X98892131Y-142837948D01*
X98889224Y-142786979D01*
X98888240Y-142733464D01*
X98889143Y-142682642D01*
X98891809Y-142633974D01*
X98894859Y-142601465D01*
X99175019Y-142601465D01*
X99776524Y-142601465D01*
X99775393Y-142581455D01*
X99773600Y-142562042D01*
X99771158Y-142543228D01*
X99768081Y-142525016D01*
X99764380Y-142507409D01*
X99760069Y-142490409D01*
X99755161Y-142474018D01*
X99749668Y-142458239D01*
X99743603Y-142443075D01*
X99736979Y-142428527D01*
X99729809Y-142414599D01*
X99722106Y-142401294D01*
X99713882Y-142388612D01*
X99705150Y-142376558D01*
X99695923Y-142365134D01*
X99686215Y-142354341D01*
X99676037Y-142344183D01*
X99665402Y-142334662D01*
X99654324Y-142325781D01*
X99642815Y-142317542D01*
X99630888Y-142309948D01*
X99618556Y-142303001D01*
X99605832Y-142296703D01*
X99592728Y-142291058D01*
X99579257Y-142286068D01*
X99565433Y-142281734D01*
X99551267Y-142278061D01*
X99536773Y-142275050D01*
X99521964Y-142272703D01*
X99506852Y-142271024D01*
X99491450Y-142270015D01*
X99475771Y-142269678D01*
X99460084Y-142270015D01*
X99444659Y-142271024D01*
X99429509Y-142272703D01*
X99414649Y-142275050D01*
X99400094Y-142278061D01*
X99385859Y-142281734D01*
X99371956Y-142286067D01*
X99358402Y-142291058D01*
X99345210Y-142296703D01*
X99332395Y-142303000D01*
X99319972Y-142309948D01*
X99307954Y-142317542D01*
X99296356Y-142325781D01*
X99285193Y-142334662D01*
X99274478Y-142344183D01*
X99264228Y-142354341D01*
X99254455Y-142365133D01*
X99245174Y-142376558D01*
X99236400Y-142388612D01*
X99228147Y-142401293D01*
X99220430Y-142414599D01*
X99213263Y-142428527D01*
X99206661Y-142443074D01*
X99200637Y-142458239D01*
X99195207Y-142474017D01*
X99190384Y-142490408D01*
X99186183Y-142507409D01*
X99182620Y-142525016D01*
X99179707Y-142543228D01*
X99177460Y-142562042D01*
X99175892Y-142581455D01*
X99175019Y-142601465D01*
X98894859Y-142601465D01*
X98896176Y-142587425D01*
X98902178Y-142542958D01*
X98909753Y-142500540D01*
X98918837Y-142460134D01*
X98929366Y-142421705D01*
X98941275Y-142385217D01*
X98954503Y-142350635D01*
X98968984Y-142317923D01*
X98984655Y-142287047D01*
X99001452Y-142257970D01*
X99019312Y-142230657D01*
X99038171Y-142205073D01*
X99057965Y-142181182D01*
X99078630Y-142158948D01*
X99100103Y-142138337D01*
X99122319Y-142119313D01*
X99145216Y-142101840D01*
X99168729Y-142085882D01*
X99192795Y-142071405D01*
X99217350Y-142058373D01*
X99242330Y-142046751D01*
X99267672Y-142036502D01*
X99293312Y-142027592D01*
X99319185Y-142019985D01*
X99345229Y-142013646D01*
X99371379Y-142008539D01*
X99423745Y-142001879D01*
X99475772Y-141999722D01*
X99505141Y-142000402D01*
G37*
D10*
X127534624Y-136382822D02*
X127612048Y-136052084D01*
X130798422Y-136668396D02*
X130840311Y-136348428D01*
X130919366Y-136016228D02*
X131038953Y-135670677D01*
D11*
G36*
X94465312Y-142000000D02*
G01*
X94485357Y-142000818D01*
X94504887Y-142002159D01*
X94523909Y-142004003D01*
X94542431Y-142006331D01*
X94560458Y-142009124D01*
X94577998Y-142012363D01*
X94595057Y-142016029D01*
X94611642Y-142020103D01*
X94627760Y-142024566D01*
X94643417Y-142029399D01*
X94658620Y-142034582D01*
X94673376Y-142040097D01*
X94687692Y-142045924D01*
X94701574Y-142052045D01*
X94715029Y-142058440D01*
X94740685Y-142071978D01*
X94764714Y-142086384D01*
X94787170Y-142101506D01*
X94808107Y-142117192D01*
X94827578Y-142133290D01*
X94845638Y-142149646D01*
X94862340Y-142166107D01*
X94877738Y-142182523D01*
X94897537Y-142205203D01*
X94915850Y-142228096D01*
X94932704Y-142251482D01*
X94948129Y-142275642D01*
X94962154Y-142300856D01*
X94974807Y-142327404D01*
X94986118Y-142355567D01*
X94996115Y-142385624D01*
X95004828Y-142417855D01*
X95012285Y-142452542D01*
X95018515Y-142489964D01*
X95023548Y-142530401D01*
X95027412Y-142574134D01*
X95030136Y-142621443D01*
X95031749Y-142672608D01*
X95032280Y-142727909D01*
X95031749Y-142783673D01*
X95030136Y-142835247D01*
X95027412Y-142882913D01*
X95023548Y-142926956D01*
X95018515Y-142967659D01*
X95012285Y-143005306D01*
X95004828Y-143040181D01*
X94996115Y-143072566D01*
X94986118Y-143102746D01*
X94974807Y-143131004D01*
X94962154Y-143157624D01*
X94948129Y-143182889D01*
X94932704Y-143207083D01*
X94915850Y-143230489D01*
X94897537Y-143253391D01*
X94877738Y-143276073D01*
X94862340Y-143292487D01*
X94845638Y-143308943D01*
X94827578Y-143325291D01*
X94808107Y-143341378D01*
X94787170Y-143357052D01*
X94764714Y-143372161D01*
X94740685Y-143386553D01*
X94715029Y-143400076D01*
X94687691Y-143412577D01*
X94658620Y-143423905D01*
X94627759Y-143433908D01*
X94595057Y-143442432D01*
X94560458Y-143449328D01*
X94523909Y-143454441D01*
X94485357Y-143457621D01*
X94444746Y-143458714D01*
X94424195Y-143458438D01*
X94404164Y-143457621D01*
X94384647Y-143456282D01*
X94365636Y-143454441D01*
X94347126Y-143452117D01*
X94329109Y-143449328D01*
X94311578Y-143446093D01*
X94294528Y-143442433D01*
X94277951Y-143438364D01*
X94261841Y-143433908D01*
X94246190Y-143429082D01*
X94230993Y-143423905D01*
X94216243Y-143418398D01*
X94201932Y-143412578D01*
X94188055Y-143406464D01*
X94174603Y-143400076D01*
X94148954Y-143386554D01*
X94124929Y-143372162D01*
X94102477Y-143357053D01*
X94081542Y-143341379D01*
X94062072Y-143325292D01*
X94044014Y-143308944D01*
X94027312Y-143292487D01*
X94011914Y-143276073D01*
X93992113Y-143253392D01*
X93973795Y-143230492D01*
X93956933Y-143207089D01*
X93941498Y-143182899D01*
X93927461Y-143157639D01*
X93914795Y-143131024D01*
X93903470Y-143102771D01*
X93893458Y-143072595D01*
X93884730Y-143040213D01*
X93877259Y-143005341D01*
X93871015Y-142967694D01*
X93865970Y-142926989D01*
X93862096Y-142882942D01*
X93859364Y-142835269D01*
X93857746Y-142783686D01*
X93857213Y-142727909D01*
X94143994Y-142727909D01*
X94144197Y-142765179D01*
X94144825Y-142799139D01*
X94145907Y-142830042D01*
X94147472Y-142858139D01*
X94149548Y-142883682D01*
X94152165Y-142906922D01*
X94155351Y-142928111D01*
X94159135Y-142947500D01*
X94163546Y-142965342D01*
X94168613Y-142981887D01*
X94174364Y-142997388D01*
X94180829Y-143012096D01*
X94188036Y-143026263D01*
X94196015Y-143040140D01*
X94204793Y-143053979D01*
X94214400Y-143068031D01*
X94222827Y-143078945D01*
X94232323Y-143089481D01*
X94242829Y-143099594D01*
X94254287Y-143109238D01*
X94266639Y-143118370D01*
X94279825Y-143126944D01*
X94293788Y-143134915D01*
X94308469Y-143142237D01*
X94323810Y-143148867D01*
X94339751Y-143154759D01*
X94356235Y-143159868D01*
X94373203Y-143164149D01*
X94390597Y-143167557D01*
X94408357Y-143170046D01*
X94426427Y-143171573D01*
X94444746Y-143172092D01*
X94463091Y-143171572D01*
X94481180Y-143170043D01*
X94498955Y-143167550D01*
X94516358Y-143164137D01*
X94533332Y-143159852D01*
X94549819Y-143154738D01*
X94565762Y-143148841D01*
X94581102Y-143142207D01*
X94595783Y-143134881D01*
X94609748Y-143126909D01*
X94622937Y-143118335D01*
X94635294Y-143109205D01*
X94646762Y-143099564D01*
X94657282Y-143089458D01*
X94666798Y-143078932D01*
X94671161Y-143073525D01*
X94675251Y-143068031D01*
X94684856Y-143053980D01*
X94693630Y-143040145D01*
X94701600Y-143026281D01*
X94708797Y-143012140D01*
X94715250Y-142997473D01*
X94720988Y-142982034D01*
X94726040Y-142965575D01*
X94730437Y-142947847D01*
X94734206Y-142928605D01*
X94737378Y-142907600D01*
X94739981Y-142884585D01*
X94742045Y-142859311D01*
X94743600Y-142831532D01*
X94744674Y-142801001D01*
X94745498Y-142730688D01*
X94745297Y-142693417D01*
X94744674Y-142659452D01*
X94743600Y-142628542D01*
X94742045Y-142600436D01*
X94739981Y-142574883D01*
X94737378Y-142551633D01*
X94734206Y-142530435D01*
X94730437Y-142511037D01*
X94726040Y-142493189D01*
X94720988Y-142476639D01*
X94715250Y-142461138D01*
X94708797Y-142446433D01*
X94701600Y-142432274D01*
X94693630Y-142418411D01*
X94684856Y-142404591D01*
X94675251Y-142390565D01*
X94666798Y-142379651D01*
X94657282Y-142369115D01*
X94646762Y-142359003D01*
X94635294Y-142349358D01*
X94622937Y-142340226D01*
X94609748Y-142331652D01*
X94595783Y-142323682D01*
X94581102Y-142316359D01*
X94565762Y-142309729D01*
X94549819Y-142303837D01*
X94533332Y-142298728D01*
X94516358Y-142294448D01*
X94498955Y-142291040D01*
X94481180Y-142288550D01*
X94463091Y-142287023D01*
X94444746Y-142286504D01*
X94426427Y-142287024D01*
X94408357Y-142288553D01*
X94390597Y-142291047D01*
X94373203Y-142294459D01*
X94356235Y-142298745D01*
X94339751Y-142303858D01*
X94323810Y-142309755D01*
X94308469Y-142316389D01*
X94293788Y-142323715D01*
X94279825Y-142331688D01*
X94266639Y-142340262D01*
X94254287Y-142349392D01*
X94242829Y-142359032D01*
X94232323Y-142369138D01*
X94222827Y-142379664D01*
X94218476Y-142385071D01*
X94214400Y-142390565D01*
X94204793Y-142404590D01*
X94196015Y-142418405D01*
X94188036Y-142432256D01*
X94180829Y-142446389D01*
X94174364Y-142461053D01*
X94168613Y-142476493D01*
X94163546Y-142492956D01*
X94159135Y-142510690D01*
X94155351Y-142529940D01*
X94152165Y-142550955D01*
X94149548Y-142573980D01*
X94147472Y-142599264D01*
X94145907Y-142627051D01*
X94144825Y-142657590D01*
X94143994Y-142727909D01*
X93857213Y-142727909D01*
X93857746Y-142672609D01*
X93859364Y-142621446D01*
X93862096Y-142574141D01*
X93865970Y-142530412D01*
X93871015Y-142489980D01*
X93877259Y-142452563D01*
X93884730Y-142417881D01*
X93893458Y-142385653D01*
X93903470Y-142355600D01*
X93914795Y-142327439D01*
X93927461Y-142300891D01*
X93941498Y-142275676D01*
X93956933Y-142251511D01*
X93973795Y-142228118D01*
X93992113Y-142205216D01*
X94011914Y-142182523D01*
X94027312Y-142166108D01*
X94044014Y-142149646D01*
X94062073Y-142133290D01*
X94081543Y-142117193D01*
X94102477Y-142101507D01*
X94124930Y-142086384D01*
X94148954Y-142071978D01*
X94174604Y-142058441D01*
X94201932Y-142045925D01*
X94230994Y-142034582D01*
X94261841Y-142024566D01*
X94294528Y-142016030D01*
X94329109Y-142009124D01*
X94365636Y-142004003D01*
X94404164Y-142000818D01*
X94444746Y-141999723D01*
X94465312Y-142000000D01*
G37*
D10*
X124327240Y-137587019D02*
X124274969Y-137297986D01*
X132514558Y-141320123D02*
X132439084Y-141036973D01*
X125726842Y-143586330D02*
X125884473Y-143224733D01*
D12*
X128000000Y-100000000D02*
X128000000Y-93000000D01*
D11*
G36*
X91247548Y-142000225D02*
G01*
X91268580Y-142001727D01*
X91310823Y-142007722D01*
X91352957Y-142017677D01*
X91394568Y-142031565D01*
X91415048Y-142039974D01*
X91435240Y-142049356D01*
X91455093Y-142059707D01*
X91474556Y-142071024D01*
X91493576Y-142083301D01*
X91512101Y-142096537D01*
X91530080Y-142110728D01*
X91547460Y-142125869D01*
X91564189Y-142141958D01*
X91580215Y-142158991D01*
X91595487Y-142176964D01*
X91609953Y-142195873D01*
X91623559Y-142215716D01*
X91636256Y-142236488D01*
X91647989Y-142258186D01*
X91658709Y-142280807D01*
X91668362Y-142304346D01*
X91676896Y-142328800D01*
X91684260Y-142354166D01*
X91690402Y-142380441D01*
X91695269Y-142407619D01*
X91698810Y-142435699D01*
X91700973Y-142464675D01*
X91701705Y-142494546D01*
X91701705Y-143441808D01*
X91415003Y-143441808D01*
X91415003Y-142593052D01*
X91414651Y-142575098D01*
X91413606Y-142557628D01*
X91411882Y-142540649D01*
X91409495Y-142524164D01*
X91406460Y-142508181D01*
X91402790Y-142492704D01*
X91398502Y-142477739D01*
X91393610Y-142463293D01*
X91388129Y-142449370D01*
X91382074Y-142435976D01*
X91375460Y-142423117D01*
X91368302Y-142410799D01*
X91360615Y-142399026D01*
X91352413Y-142387806D01*
X91343712Y-142377142D01*
X91334526Y-142367042D01*
X91324872Y-142357510D01*
X91314762Y-142348552D01*
X91304213Y-142340175D01*
X91293239Y-142332382D01*
X91281855Y-142325181D01*
X91270077Y-142318576D01*
X91257918Y-142312574D01*
X91245395Y-142307179D01*
X91232521Y-142302399D01*
X91219312Y-142298237D01*
X91205783Y-142294700D01*
X91191949Y-142291794D01*
X91177824Y-142289523D01*
X91163424Y-142287895D01*
X91148763Y-142286913D01*
X91133857Y-142286585D01*
X91118698Y-142286913D01*
X91103800Y-142287895D01*
X91089179Y-142289523D01*
X91074847Y-142291794D01*
X91060821Y-142294700D01*
X91047113Y-142298237D01*
X91033739Y-142302398D01*
X91020712Y-142307179D01*
X91008048Y-142312573D01*
X90995761Y-142318576D01*
X90983865Y-142325180D01*
X90972374Y-142332381D01*
X90961304Y-142340174D01*
X90950667Y-142348552D01*
X90940480Y-142357509D01*
X90930756Y-142367041D01*
X90921509Y-142377141D01*
X90912755Y-142387805D01*
X90904507Y-142399026D01*
X90896779Y-142410798D01*
X90889588Y-142423116D01*
X90882946Y-142435975D01*
X90876868Y-142449369D01*
X90871368Y-142463292D01*
X90866462Y-142477738D01*
X90862163Y-142492703D01*
X90858486Y-142508180D01*
X90855445Y-142524163D01*
X90853055Y-142540648D01*
X90851329Y-142557628D01*
X90850284Y-142575098D01*
X90849932Y-142593052D01*
X90849932Y-143441808D01*
X90563230Y-143441808D01*
X90563230Y-142016629D01*
X90849932Y-142016629D01*
X90849932Y-142168395D01*
X90855647Y-142168395D01*
X90872953Y-142147979D01*
X90891161Y-142128878D01*
X90910245Y-142111093D01*
X90930180Y-142094624D01*
X90950941Y-142079471D01*
X90972503Y-142065634D01*
X90994841Y-142053114D01*
X91017929Y-142041911D01*
X91041743Y-142032025D01*
X91066257Y-142023457D01*
X91091447Y-142016206D01*
X91117287Y-142010272D01*
X91143752Y-142005657D01*
X91170816Y-142002361D01*
X91198456Y-142000382D01*
X91226646Y-141999723D01*
X91247548Y-142000225D01*
G37*
G36*
X97414763Y-142000213D02*
G01*
X97435705Y-142001666D01*
X97456214Y-142004057D01*
X97476306Y-142007363D01*
X97495999Y-142011557D01*
X97515312Y-142016617D01*
X97534261Y-142022516D01*
X97552864Y-142029230D01*
X97571139Y-142036736D01*
X97589103Y-142045007D01*
X97606773Y-142054019D01*
X97624168Y-142063749D01*
X97641305Y-142074170D01*
X97658202Y-142085259D01*
X97674875Y-142096990D01*
X97691343Y-142109340D01*
X97483301Y-142356752D01*
X97470871Y-142347631D01*
X97458838Y-142339217D01*
X97447136Y-142331494D01*
X97435698Y-142324446D01*
X97424459Y-142318055D01*
X97413351Y-142312306D01*
X97402309Y-142307183D01*
X97391266Y-142302668D01*
X97380156Y-142298746D01*
X97368913Y-142295400D01*
X97357470Y-142292614D01*
X97345761Y-142290371D01*
X97333721Y-142288655D01*
X97321282Y-142287450D01*
X97308378Y-142286738D01*
X97294944Y-142286505D01*
X97268640Y-142287566D01*
X97242604Y-142290776D01*
X97217032Y-142296176D01*
X97192124Y-142303808D01*
X97179979Y-142308473D01*
X97168074Y-142313712D01*
X97156433Y-142319530D01*
X97145082Y-142325931D01*
X97134043Y-142332921D01*
X97123343Y-142340505D01*
X97113005Y-142348689D01*
X97103055Y-142357476D01*
X97093517Y-142366874D01*
X97084416Y-142376885D01*
X97075776Y-142387517D01*
X97067622Y-142398774D01*
X97059978Y-142410660D01*
X97052870Y-142423182D01*
X97046322Y-142436345D01*
X97040359Y-142450153D01*
X97035005Y-142464612D01*
X97030284Y-142479727D01*
X97026223Y-142495503D01*
X97022844Y-142511945D01*
X97020174Y-142529059D01*
X97018236Y-142546849D01*
X97017055Y-142565321D01*
X97016656Y-142584479D01*
X97016656Y-143441808D01*
X96729874Y-143441808D01*
X96729874Y-142016629D01*
X97016656Y-142016629D01*
X97016656Y-142168395D01*
X97022213Y-142168395D01*
X97039534Y-142147979D01*
X97057756Y-142128878D01*
X97076855Y-142111093D01*
X97096804Y-142094624D01*
X97117578Y-142079471D01*
X97139153Y-142065634D01*
X97161503Y-142053114D01*
X97184603Y-142041911D01*
X97208428Y-142032025D01*
X97232952Y-142023457D01*
X97258150Y-142016206D01*
X97283997Y-142010272D01*
X97310468Y-142005657D01*
X97337537Y-142002361D01*
X97365179Y-142000382D01*
X97393370Y-141999723D01*
X97414763Y-142000213D01*
G37*
D10*
X127488734Y-137007963D02*
X127494648Y-136701068D01*
X124653362Y-135336294D02*
X124863411Y-134960901D01*
X130840311Y-136348428D02*
X130919366Y-136016228D01*
X127494648Y-136701068D02*
X127534624Y-136382822D01*
X126071418Y-142544619D02*
X126107514Y-142223845D01*
D11*
G36*
X93448352Y-145265765D02*
G01*
X93453988Y-145265765D01*
X93777203Y-144267863D01*
X93985245Y-144267863D01*
X94308459Y-145265765D01*
X94314254Y-145265765D01*
X94586748Y-144267863D01*
X94890437Y-144267863D01*
X94435142Y-145693042D01*
X94182015Y-145693042D01*
X93884041Y-144695058D01*
X93878406Y-144695058D01*
X93580433Y-145693042D01*
X93327464Y-145693042D01*
X92872090Y-144267863D01*
X93175620Y-144267863D01*
X93448352Y-145265765D01*
G37*
D10*
X128702587Y-139961344D02*
X128409140Y-139447709D01*
X128969635Y-140484400D02*
X128702587Y-139961344D01*
X124255724Y-136691933D02*
X124295531Y-136372656D01*
X126107514Y-142223845D02*
X126109880Y-141914423D01*
X131038953Y-135670677D02*
X131202432Y-135310656D01*
X125266312Y-144358243D02*
X125521919Y-143963790D01*
D12*
X128000000Y-100000000D02*
X135000000Y-100000000D01*
D11*
G36*
X91297730Y-144251446D02*
G01*
X91318677Y-144252899D01*
X91339192Y-144255291D01*
X91359293Y-144258596D01*
X91378996Y-144262791D01*
X91398319Y-144267850D01*
X91417277Y-144273750D01*
X91435889Y-144280464D01*
X91454170Y-144287969D01*
X91472138Y-144296240D01*
X91489809Y-144305253D01*
X91507201Y-144314982D01*
X91524330Y-144325404D01*
X91541213Y-144336493D01*
X91557867Y-144348224D01*
X91574308Y-144360574D01*
X91366346Y-144607986D01*
X91353916Y-144598837D01*
X91341880Y-144590398D01*
X91330175Y-144582654D01*
X91318732Y-144575588D01*
X91307488Y-144569182D01*
X91296375Y-144563420D01*
X91285328Y-144558286D01*
X91274281Y-144553763D01*
X91263168Y-144549835D01*
X91251923Y-144546484D01*
X91240480Y-144543694D01*
X91228773Y-144541449D01*
X91216737Y-144539732D01*
X91204304Y-144538526D01*
X91191411Y-144537814D01*
X91177989Y-144537581D01*
X91151697Y-144538643D01*
X91125668Y-144541858D01*
X91100100Y-144547265D01*
X91075190Y-144554906D01*
X91063044Y-144559576D01*
X91051136Y-144564820D01*
X91039492Y-144570642D01*
X91028137Y-144577048D01*
X91017094Y-144584043D01*
X91006389Y-144591632D01*
X90996046Y-144599820D01*
X90986090Y-144608611D01*
X90976546Y-144618012D01*
X90967439Y-144628027D01*
X90958793Y-144638660D01*
X90950633Y-144649919D01*
X90942984Y-144661806D01*
X90935870Y-144674328D01*
X90929317Y-144687489D01*
X90923348Y-144701295D01*
X90917989Y-144715750D01*
X90913264Y-144730861D01*
X90909199Y-144746631D01*
X90905817Y-144763065D01*
X90903143Y-144780170D01*
X90901203Y-144797950D01*
X90900021Y-144816409D01*
X90899621Y-144835554D01*
X90899621Y-145693042D01*
X90612919Y-145693042D01*
X90612919Y-144267863D01*
X90899621Y-144267863D01*
X90899621Y-144419629D01*
X90905257Y-144419629D01*
X90922577Y-144399212D01*
X90940797Y-144380112D01*
X90959891Y-144362326D01*
X90979836Y-144345857D01*
X91000604Y-144330704D01*
X91022173Y-144316868D01*
X91044516Y-144304348D01*
X91067608Y-144293145D01*
X91091425Y-144283259D01*
X91115942Y-144274690D01*
X91141134Y-144267439D01*
X91166975Y-144261506D01*
X91193440Y-144256891D01*
X91220505Y-144253594D01*
X91248145Y-144251616D01*
X91276335Y-144250957D01*
X91297730Y-144251446D01*
G37*
D10*
X124613960Y-138411681D02*
X124500126Y-138142739D01*
D11*
G36*
X92718658Y-145693042D02*
G01*
X92431956Y-145693042D01*
X92431956Y-145544054D01*
X92414605Y-145562111D01*
X92396307Y-145579396D01*
X92377101Y-145595854D01*
X92357029Y-145611431D01*
X92336133Y-145626074D01*
X92314454Y-145639727D01*
X92292032Y-145652338D01*
X92268910Y-145663851D01*
X92245128Y-145674212D01*
X92220728Y-145683368D01*
X92195751Y-145691264D01*
X92170238Y-145697846D01*
X92144231Y-145703059D01*
X92117770Y-145706850D01*
X92090898Y-145709164D01*
X92063656Y-145709948D01*
X92047454Y-145709719D01*
X92031533Y-145709037D01*
X92015891Y-145707913D01*
X92000528Y-145706356D01*
X91985443Y-145704374D01*
X91970636Y-145701977D01*
X91956107Y-145699174D01*
X91941853Y-145695975D01*
X91927876Y-145692389D01*
X91914175Y-145688425D01*
X91900749Y-145684092D01*
X91887597Y-145679400D01*
X91874719Y-145674358D01*
X91862115Y-145668975D01*
X91837725Y-145657223D01*
X91814422Y-145644219D01*
X91792202Y-145630038D01*
X91771060Y-145614753D01*
X91750994Y-145598439D01*
X91731997Y-145581169D01*
X91714066Y-145563018D01*
X91697197Y-145544060D01*
X91681385Y-145524369D01*
X91667273Y-145505428D01*
X91654430Y-145486294D01*
X91642806Y-145466578D01*
X91632354Y-145445886D01*
X91623022Y-145423828D01*
X91614761Y-145400013D01*
X91607523Y-145374050D01*
X91601256Y-145345547D01*
X91595912Y-145314113D01*
X91591442Y-145279357D01*
X91587795Y-145240887D01*
X91584922Y-145198313D01*
X91581301Y-145099285D01*
X91580182Y-144979143D01*
X91866885Y-144979143D01*
X91867108Y-145020716D01*
X91868015Y-145061964D01*
X91869960Y-145102561D01*
X91873297Y-145142182D01*
X91878379Y-145180503D01*
X91881686Y-145199074D01*
X91885562Y-145217198D01*
X91890051Y-145234834D01*
X91895198Y-145251941D01*
X91901048Y-145268480D01*
X91907644Y-145284408D01*
X91915030Y-145299687D01*
X91923252Y-145314274D01*
X91932352Y-145328129D01*
X91942376Y-145341212D01*
X91953368Y-145353482D01*
X91965372Y-145364899D01*
X91978432Y-145375421D01*
X91992592Y-145385007D01*
X92007898Y-145393619D01*
X92024392Y-145401214D01*
X92042120Y-145407752D01*
X92061126Y-145413193D01*
X92081453Y-145417495D01*
X92103146Y-145420618D01*
X92126250Y-145422522D01*
X92150809Y-145423166D01*
X92175115Y-145422482D01*
X92197983Y-145420465D01*
X92219455Y-145417161D01*
X92239576Y-145412620D01*
X92258389Y-145406889D01*
X92275938Y-145400017D01*
X92292267Y-145392052D01*
X92307420Y-145383043D01*
X92321440Y-145373038D01*
X92334371Y-145362085D01*
X92346257Y-145350233D01*
X92357142Y-145337529D01*
X92367069Y-145324023D01*
X92376083Y-145309762D01*
X92384226Y-145294795D01*
X92391544Y-145279170D01*
X92398078Y-145262936D01*
X92403874Y-145246140D01*
X92413425Y-145211059D01*
X92420546Y-145174313D01*
X92425587Y-145136289D01*
X92428898Y-145097374D01*
X92430830Y-145057953D01*
X92431956Y-144979143D01*
X92431733Y-144940358D01*
X92430830Y-144901237D01*
X92428898Y-144862171D01*
X92425587Y-144823553D01*
X92420546Y-144785774D01*
X92417267Y-144767322D01*
X92413425Y-144749226D01*
X92408975Y-144731536D01*
X92403874Y-144714300D01*
X92398078Y-144697567D01*
X92391544Y-144681388D01*
X92384226Y-144665809D01*
X92376083Y-144650881D01*
X92367069Y-144636652D01*
X92357142Y-144623171D01*
X92346257Y-144610487D01*
X92334371Y-144598650D01*
X92321440Y-144587707D01*
X92307420Y-144577709D01*
X92292267Y-144568703D01*
X92275938Y-144560740D01*
X92258389Y-144553867D01*
X92239576Y-144548134D01*
X92219455Y-144543590D01*
X92197983Y-144540283D01*
X92175115Y-144538264D01*
X92150809Y-144537580D01*
X92126250Y-144538224D01*
X92103146Y-144540128D01*
X92081453Y-144543252D01*
X92061126Y-144547554D01*
X92042120Y-144552994D01*
X92024392Y-144559529D01*
X92007898Y-144567119D01*
X91992592Y-144575722D01*
X91978432Y-144585297D01*
X91965372Y-144595804D01*
X91953368Y-144607200D01*
X91942376Y-144619445D01*
X91932352Y-144632498D01*
X91923252Y-144646317D01*
X91915030Y-144660861D01*
X91907644Y-144676089D01*
X91901048Y-144691960D01*
X91895198Y-144708432D01*
X91885562Y-144743016D01*
X91878379Y-144779513D01*
X91873297Y-144817592D01*
X91869960Y-144856924D01*
X91868015Y-144897180D01*
X91866885Y-144979143D01*
X91580182Y-144979143D01*
X91580454Y-144916670D01*
X91581301Y-144859813D01*
X91582774Y-144808185D01*
X91584922Y-144761397D01*
X91587795Y-144719064D01*
X91591442Y-144680796D01*
X91595913Y-144646208D01*
X91601256Y-144614911D01*
X91607523Y-144586518D01*
X91611018Y-144573289D01*
X91614762Y-144560641D01*
X91618761Y-144548525D01*
X91623022Y-144536894D01*
X91627551Y-144525697D01*
X91632354Y-144514888D01*
X91642807Y-144494237D01*
X91654430Y-144474553D01*
X91667273Y-144455448D01*
X91681385Y-144436535D01*
X91697197Y-144416819D01*
X91714066Y-144397841D01*
X91731997Y-144379677D01*
X91750994Y-144362399D01*
X91771060Y-144346081D01*
X91792202Y-144330797D01*
X91814422Y-144316619D01*
X91837725Y-144303622D01*
X91862115Y-144291879D01*
X91887597Y-144281463D01*
X91914175Y-144272448D01*
X91941853Y-144264907D01*
X91970636Y-144258914D01*
X92000528Y-144254542D01*
X92031533Y-144251865D01*
X92063656Y-144250957D01*
X92090712Y-144251739D01*
X92117077Y-144254053D01*
X92142782Y-144257850D01*
X92167860Y-144263080D01*
X92192345Y-144269694D01*
X92216270Y-144277641D01*
X92239667Y-144286874D01*
X92262569Y-144297342D01*
X92285011Y-144308996D01*
X92307024Y-144321786D01*
X92328641Y-144335664D01*
X92349897Y-144350579D01*
X92370823Y-144366483D01*
X92391453Y-144383325D01*
X92411819Y-144401057D01*
X92431956Y-144419629D01*
X92431956Y-143691442D01*
X92718658Y-143691442D01*
X92718658Y-145693042D01*
G37*
D10*
X131202432Y-135310656D02*
X131413168Y-134935047D01*
X124295531Y-136372656D02*
X124372813Y-136041043D01*
X129305041Y-142521224D02*
X129341305Y-142201481D01*
X126081907Y-141615225D02*
X126026984Y-141325122D01*
D11*
G36*
X98323874Y-142000024D02*
G01*
X98343765Y-142000925D01*
X98363393Y-142002410D01*
X98382756Y-142004470D01*
X98420689Y-142010263D01*
X98457558Y-142018210D01*
X98493358Y-142028216D01*
X98528086Y-142040186D01*
X98561735Y-142054026D01*
X98594302Y-142069641D01*
X98625782Y-142086937D01*
X98656170Y-142105820D01*
X98685460Y-142126194D01*
X98713649Y-142147966D01*
X98740732Y-142171040D01*
X98766703Y-142195323D01*
X98791558Y-142220719D01*
X98815293Y-142247134D01*
X98604472Y-142435491D01*
X98590954Y-142419455D01*
X98576729Y-142404067D01*
X98561816Y-142389378D01*
X98546238Y-142375444D01*
X98530015Y-142362317D01*
X98513169Y-142350051D01*
X98495720Y-142338699D01*
X98477690Y-142328315D01*
X98459101Y-142318952D01*
X98439972Y-142310664D01*
X98420326Y-142303505D01*
X98400183Y-142297527D01*
X98379565Y-142292785D01*
X98358493Y-142289331D01*
X98336988Y-142287220D01*
X98315071Y-142286504D01*
X98272446Y-142288063D01*
X98232122Y-142292788D01*
X98212843Y-142296360D01*
X98194162Y-142300749D01*
X98176088Y-142305965D01*
X98158628Y-142312016D01*
X98141790Y-142318910D01*
X98125581Y-142326658D01*
X98110009Y-142335266D01*
X98095083Y-142344745D01*
X98080809Y-142355103D01*
X98067196Y-142366348D01*
X98054251Y-142378490D01*
X98041982Y-142391537D01*
X98030396Y-142405498D01*
X98019502Y-142420382D01*
X98009307Y-142436196D01*
X97999819Y-142452951D01*
X97991046Y-142470655D01*
X97982995Y-142489317D01*
X97975674Y-142508945D01*
X97969091Y-142529548D01*
X97963253Y-142551135D01*
X97958169Y-142573715D01*
X97953846Y-142597296D01*
X97950291Y-142621887D01*
X97945519Y-142674135D01*
X97943914Y-142730528D01*
X97944317Y-142759010D01*
X97945520Y-142786462D01*
X97947515Y-142812893D01*
X97950294Y-142838311D01*
X97953850Y-142862725D01*
X97958176Y-142886141D01*
X97963262Y-142908570D01*
X97969102Y-142930018D01*
X97975688Y-142950495D01*
X97983011Y-142970008D01*
X97991065Y-142988565D01*
X97999840Y-143006175D01*
X98009331Y-143022846D01*
X98019528Y-143038586D01*
X98030424Y-143053403D01*
X98042012Y-143067306D01*
X98054282Y-143080303D01*
X98067229Y-143092402D01*
X98080843Y-143103611D01*
X98095118Y-143113938D01*
X98110045Y-143123392D01*
X98125616Y-143131981D01*
X98141824Y-143139713D01*
X98158662Y-143146596D01*
X98176120Y-143152638D01*
X98194192Y-143157849D01*
X98212870Y-143162235D01*
X98232145Y-143165805D01*
X98252011Y-143168567D01*
X98272459Y-143170531D01*
X98293482Y-143171702D01*
X98315071Y-143172091D01*
X98326080Y-143171911D01*
X98336987Y-143171375D01*
X98347792Y-143170491D01*
X98358490Y-143169264D01*
X98379559Y-143165810D01*
X98400172Y-143161068D01*
X98420310Y-143155090D01*
X98439951Y-143147931D01*
X98459075Y-143139643D01*
X98477661Y-143130281D01*
X98495687Y-143119897D01*
X98513134Y-143108545D01*
X98529980Y-143096279D01*
X98546205Y-143083152D01*
X98561787Y-143069217D01*
X98576706Y-143054529D01*
X98590941Y-143039140D01*
X98604472Y-143023104D01*
X98815293Y-143211460D01*
X98791572Y-143237834D01*
X98766728Y-143263196D01*
X98740767Y-143287450D01*
X98713693Y-143310502D01*
X98685511Y-143332257D01*
X98656225Y-143352619D01*
X98625840Y-143371492D01*
X98594361Y-143388783D01*
X98561793Y-143404396D01*
X98528141Y-143418236D01*
X98493409Y-143430208D01*
X98457602Y-143440216D01*
X98420725Y-143448166D01*
X98382782Y-143453962D01*
X98343779Y-143457509D01*
X98303720Y-143458713D01*
X98242266Y-143456251D01*
X98181524Y-143448764D01*
X98121942Y-143436099D01*
X98063969Y-143418102D01*
X98035726Y-143407056D01*
X98008054Y-143394620D01*
X97981008Y-143380774D01*
X97954646Y-143365500D01*
X97929022Y-143348778D01*
X97904194Y-143330589D01*
X97880216Y-143310914D01*
X97857146Y-143289734D01*
X97835039Y-143267029D01*
X97813952Y-143242781D01*
X97793941Y-143216971D01*
X97775061Y-143189579D01*
X97757369Y-143160585D01*
X97740922Y-143129972D01*
X97725774Y-143097720D01*
X97711983Y-143063809D01*
X97699604Y-143028221D01*
X97688693Y-142990936D01*
X97679307Y-142951936D01*
X97671502Y-142911201D01*
X97665333Y-142868711D01*
X97660858Y-142824449D01*
X97658131Y-142778394D01*
X97657210Y-142730528D01*
X97658131Y-142682437D01*
X97660858Y-142636172D01*
X97665333Y-142591711D01*
X97671502Y-142549036D01*
X97679307Y-142508126D01*
X97688693Y-142468963D01*
X97699604Y-142431527D01*
X97711983Y-142395798D01*
X97725774Y-142361757D01*
X97740922Y-142329385D01*
X97757369Y-142298661D01*
X97775061Y-142269566D01*
X97793941Y-142242081D01*
X97813952Y-142216186D01*
X97835039Y-142191862D01*
X97857146Y-142169088D01*
X97880216Y-142147847D01*
X97904194Y-142128117D01*
X97929022Y-142109880D01*
X97954646Y-142093115D01*
X97981008Y-142077804D01*
X98008054Y-142063927D01*
X98035726Y-142051465D01*
X98063969Y-142040397D01*
X98092726Y-142030704D01*
X98121942Y-142022367D01*
X98151560Y-142015366D01*
X98181524Y-142009682D01*
X98211778Y-142005295D01*
X98242266Y-142002186D01*
X98303720Y-141999722D01*
X98323874Y-142000024D01*
G37*
D10*
X124490960Y-135695965D02*
X124653362Y-135336294D01*
X129183175Y-141026017D02*
X129084787Y-140752318D01*
X129231681Y-142853603D02*
X129305041Y-142521224D01*
X132200472Y-143586039D02*
X132359138Y-143224092D01*
X128409140Y-139447709D02*
X128116400Y-138934360D01*
X124879455Y-138937372D02*
X124613960Y-138411681D01*
X130935294Y-137848312D02*
X130862138Y-137566089D01*
X127513491Y-137304650D02*
X127488734Y-137007963D01*
D11*
G36*
X88498808Y-142000712D02*
G01*
X88529806Y-142003394D01*
X88559695Y-142007773D01*
X88588479Y-142013774D01*
X88616162Y-142021325D01*
X88642747Y-142030350D01*
X88668238Y-142040775D01*
X88692639Y-142052527D01*
X88715953Y-142065530D01*
X88738185Y-142079712D01*
X88759338Y-142094997D01*
X88779415Y-142111311D01*
X88798421Y-142128581D01*
X88816359Y-142146732D01*
X88833233Y-142165690D01*
X88849047Y-142185380D01*
X88863146Y-142204322D01*
X88875976Y-142223455D01*
X88887589Y-142243173D01*
X88898033Y-142263866D01*
X88902832Y-142274700D01*
X88907357Y-142285926D01*
X88911615Y-142297590D01*
X88915611Y-142309744D01*
X88919352Y-142322435D01*
X88922844Y-142335712D01*
X88929107Y-142364222D01*
X88934447Y-142395664D01*
X88938915Y-142430431D01*
X88942560Y-142468913D01*
X88945432Y-142511503D01*
X88947579Y-142558592D01*
X88949052Y-142610571D01*
X88949899Y-142667832D01*
X88950171Y-142730766D01*
X88949052Y-142849998D01*
X88945432Y-142948353D01*
X88942560Y-142990668D01*
X88938915Y-143028923D01*
X88934447Y-143063505D01*
X88929107Y-143094800D01*
X88922844Y-143123195D01*
X88915611Y-143149076D01*
X88907357Y-143172830D01*
X88898032Y-143194842D01*
X88887589Y-143215501D01*
X88875976Y-143235191D01*
X88863146Y-143254300D01*
X88849047Y-143273215D01*
X88833233Y-143292905D01*
X88816359Y-143311863D01*
X88798421Y-143330014D01*
X88779415Y-143347284D01*
X88759338Y-143363598D01*
X88738185Y-143378883D01*
X88715953Y-143393065D01*
X88692639Y-143406068D01*
X88668238Y-143417820D01*
X88655629Y-143423203D01*
X88642746Y-143428245D01*
X88629591Y-143432937D01*
X88616161Y-143437270D01*
X88602458Y-143441234D01*
X88588479Y-143444821D01*
X88574225Y-143448020D01*
X88559695Y-143450822D01*
X88544889Y-143453219D01*
X88529806Y-143455201D01*
X88514446Y-143456759D01*
X88498808Y-143457883D01*
X88482892Y-143458564D01*
X88466698Y-143458793D01*
X88439641Y-143458011D01*
X88413276Y-143455696D01*
X88387572Y-143451900D01*
X88362493Y-143446670D01*
X88338008Y-143440056D01*
X88314084Y-143432109D01*
X88290687Y-143422876D01*
X88267784Y-143412408D01*
X88245343Y-143400755D01*
X88223330Y-143387964D01*
X88201712Y-143374087D01*
X88180457Y-143359171D01*
X88159530Y-143343268D01*
X88138901Y-143326425D01*
X88118534Y-143308693D01*
X88098398Y-143290121D01*
X88097366Y-144419628D01*
X88115677Y-144399211D01*
X88134763Y-144380110D01*
X88154606Y-144362325D01*
X88175191Y-144345856D01*
X88196500Y-144330703D01*
X88218517Y-144316866D01*
X88241225Y-144304346D01*
X88264609Y-144293143D01*
X88288651Y-144283257D01*
X88313336Y-144274689D01*
X88338646Y-144267438D01*
X88364564Y-144261505D01*
X88391076Y-144256890D01*
X88418163Y-144253593D01*
X88445810Y-144251615D01*
X88474000Y-144250955D01*
X88494903Y-144251457D01*
X88515935Y-144252960D01*
X88537044Y-144255460D01*
X88558177Y-144258954D01*
X88579284Y-144263438D01*
X88600312Y-144268908D01*
X88621209Y-144275362D01*
X88641923Y-144282795D01*
X88662402Y-144291204D01*
X88682594Y-144300584D01*
X88702448Y-144310934D01*
X88721911Y-144322248D01*
X88740931Y-144334524D01*
X88759456Y-144347757D01*
X88777434Y-144361945D01*
X88794814Y-144377083D01*
X88811543Y-144393168D01*
X88827570Y-144410196D01*
X88842842Y-144428164D01*
X88857307Y-144447068D01*
X88870914Y-144466904D01*
X88883610Y-144487670D01*
X88895344Y-144509361D01*
X88906063Y-144531973D01*
X88915716Y-144555504D01*
X88924250Y-144579949D01*
X88931614Y-144605304D01*
X88937756Y-144631568D01*
X88942623Y-144658734D01*
X88946164Y-144686801D01*
X88948327Y-144715764D01*
X88949060Y-144745621D01*
X88949060Y-145693040D01*
X88662357Y-145693040D01*
X88662357Y-144844126D01*
X88662005Y-144826172D01*
X88660960Y-144808702D01*
X88659237Y-144791722D01*
X88656850Y-144775237D01*
X88653814Y-144759254D01*
X88650145Y-144743777D01*
X88645856Y-144728813D01*
X88640964Y-144714366D01*
X88635483Y-144700443D01*
X88629428Y-144687049D01*
X88622814Y-144674191D01*
X88615656Y-144661872D01*
X88607969Y-144650100D01*
X88599767Y-144638879D01*
X88591066Y-144628216D01*
X88581881Y-144618116D01*
X88572226Y-144608584D01*
X88562116Y-144599626D01*
X88551567Y-144591248D01*
X88540593Y-144583456D01*
X88529210Y-144576255D01*
X88517431Y-144569650D01*
X88505272Y-144563648D01*
X88492749Y-144558254D01*
X88479875Y-144553473D01*
X88466666Y-144549311D01*
X88453137Y-144545775D01*
X88439303Y-144542868D01*
X88425178Y-144540598D01*
X88410778Y-144538969D01*
X88396117Y-144537988D01*
X88381211Y-144537660D01*
X88366052Y-144537988D01*
X88351156Y-144538969D01*
X88336535Y-144540598D01*
X88322205Y-144542868D01*
X88308180Y-144545775D01*
X88294475Y-144549311D01*
X88281103Y-144553473D01*
X88268079Y-144558254D01*
X88255418Y-144563648D01*
X88243134Y-144569650D01*
X88231241Y-144576255D01*
X88219754Y-144583456D01*
X88208687Y-144591249D01*
X88198054Y-144599627D01*
X88187870Y-144608584D01*
X88178150Y-144618116D01*
X88168907Y-144628216D01*
X88160156Y-144638880D01*
X88151912Y-144650100D01*
X88144188Y-144661873D01*
X88137000Y-144674191D01*
X88130361Y-144687050D01*
X88124286Y-144700444D01*
X88118790Y-144714367D01*
X88113886Y-144728813D01*
X88109589Y-144743777D01*
X88105914Y-144759254D01*
X88102875Y-144775238D01*
X88100487Y-144791722D01*
X88098762Y-144808702D01*
X88097717Y-144826172D01*
X88097366Y-144844126D01*
X88097366Y-145693042D01*
X87810584Y-145693042D01*
X87810584Y-142730686D01*
X88098398Y-142730686D01*
X88099523Y-142808586D01*
X88101455Y-142847644D01*
X88104767Y-142886252D01*
X88109808Y-142924019D01*
X88116929Y-142960554D01*
X88126479Y-142995466D01*
X88132275Y-143012191D01*
X88138810Y-143028363D01*
X88146127Y-143043934D01*
X88154271Y-143058855D01*
X88163284Y-143073077D01*
X88173211Y-143086551D01*
X88184096Y-143099227D01*
X88195982Y-143111058D01*
X88208914Y-143121994D01*
X88222934Y-143131987D01*
X88238086Y-143140987D01*
X88254416Y-143148946D01*
X88271965Y-143155814D01*
X88290778Y-143161544D01*
X88310899Y-143166085D01*
X88332371Y-143169389D01*
X88355238Y-143171408D01*
X88379544Y-143172091D01*
X88404103Y-143171447D01*
X88427207Y-143169543D01*
X88448900Y-143166419D01*
X88469228Y-143162117D01*
X88488233Y-143156678D01*
X88505961Y-143150143D01*
X88522456Y-143142554D01*
X88537761Y-143133951D01*
X88551922Y-143124377D01*
X88564982Y-143113872D01*
X88576985Y-143102477D01*
X88587977Y-143090234D01*
X88598001Y-143077183D01*
X88607102Y-143063367D01*
X88615323Y-143048826D01*
X88622710Y-143033601D01*
X88629305Y-143017735D01*
X88635155Y-143001267D01*
X88640302Y-142984239D01*
X88644792Y-142966692D01*
X88648668Y-142948669D01*
X88651974Y-142930209D01*
X88657057Y-142892145D01*
X88660393Y-142852831D01*
X88662338Y-142812597D01*
X88663245Y-142771772D01*
X88663469Y-142730686D01*
X88662338Y-142647813D01*
X88660393Y-142607194D01*
X88657057Y-142567554D01*
X88651974Y-142529218D01*
X88644792Y-142492511D01*
X88635155Y-142457757D01*
X88629305Y-142441214D01*
X88622710Y-142425281D01*
X88615323Y-142409999D01*
X88607102Y-142395409D01*
X88598001Y-142381551D01*
X88587977Y-142368466D01*
X88576985Y-142356194D01*
X88564982Y-142344776D01*
X88551922Y-142334253D01*
X88537761Y-142324665D01*
X88522456Y-142316052D01*
X88505961Y-142308457D01*
X88488233Y-142301918D01*
X88469228Y-142296477D01*
X88448900Y-142292175D01*
X88427207Y-142289051D01*
X88404103Y-142287148D01*
X88379544Y-142286504D01*
X88355245Y-142287188D01*
X88332384Y-142289207D01*
X88310917Y-142292513D01*
X88290801Y-142297057D01*
X88271991Y-142302791D01*
X88254445Y-142309668D01*
X88238118Y-142317637D01*
X88222967Y-142326652D01*
X88208948Y-142336663D01*
X88196018Y-142347622D01*
X88184131Y-142359481D01*
X88173246Y-142372192D01*
X88163318Y-142385705D01*
X88154303Y-142399973D01*
X88146159Y-142414948D01*
X88138840Y-142430580D01*
X88132303Y-142446822D01*
X88126505Y-142463624D01*
X88121402Y-142480940D01*
X88116949Y-142498720D01*
X88113105Y-142516916D01*
X88109824Y-142535479D01*
X88104778Y-142573515D01*
X88101462Y-142612441D01*
X88099527Y-142651870D01*
X88098622Y-142691413D01*
X88098398Y-142730686D01*
X87810584Y-142730686D01*
X87810584Y-142016708D01*
X88098398Y-142016708D01*
X88098398Y-142165695D01*
X88115761Y-142147612D01*
X88134070Y-142130308D01*
X88153282Y-142113837D01*
X88173358Y-142098251D01*
X88194256Y-142083605D01*
X88215935Y-142069952D01*
X88238355Y-142057346D01*
X88261474Y-142045839D01*
X88285252Y-142035486D01*
X88309647Y-142026339D01*
X88334619Y-142018454D01*
X88360127Y-142011882D01*
X88386130Y-142006677D01*
X88412586Y-142002893D01*
X88439456Y-142000584D01*
X88466698Y-141999802D01*
X88498808Y-142000712D01*
G37*
G36*
X93146924Y-142000764D02*
G01*
X93191082Y-142003377D01*
X93233481Y-142007671D01*
X93274200Y-142013596D01*
X93313318Y-142021104D01*
X93350914Y-142030145D01*
X93387065Y-142040669D01*
X93421851Y-142052627D01*
X93455351Y-142065968D01*
X93487643Y-142080644D01*
X93518807Y-142096606D01*
X93548920Y-142113802D01*
X93578061Y-142132185D01*
X93606309Y-142151705D01*
X93633744Y-142172311D01*
X93660443Y-142193954D01*
X93483436Y-142401837D01*
X93462319Y-142387404D01*
X93441079Y-142373601D01*
X93419664Y-142360468D01*
X93398020Y-142348048D01*
X93376093Y-142336383D01*
X93353831Y-142325513D01*
X93331180Y-142315482D01*
X93308087Y-142306329D01*
X93284497Y-142298098D01*
X93260359Y-142290829D01*
X93235618Y-142284564D01*
X93210221Y-142279345D01*
X93184115Y-142275213D01*
X93157246Y-142272210D01*
X93129562Y-142270378D01*
X93101008Y-142269758D01*
X93084237Y-142269971D01*
X93068163Y-142270604D01*
X93052776Y-142271648D01*
X93038064Y-142273094D01*
X93024017Y-142274934D01*
X93010624Y-142277159D01*
X92997874Y-142279760D01*
X92985756Y-142282728D01*
X92974259Y-142286054D01*
X92963374Y-142289730D01*
X92953088Y-142293747D01*
X92943391Y-142298096D01*
X92934273Y-142302767D01*
X92925722Y-142307753D01*
X92917727Y-142313045D01*
X92910279Y-142318633D01*
X92903365Y-142324509D01*
X92896976Y-142330664D01*
X92891101Y-142337090D01*
X92885728Y-142343776D01*
X92880847Y-142350716D01*
X92876447Y-142357899D01*
X92872517Y-142365318D01*
X92869047Y-142372962D01*
X92866026Y-142380825D01*
X92863442Y-142388895D01*
X92861286Y-142397166D01*
X92859546Y-142405627D01*
X92858211Y-142414271D01*
X92857271Y-142423088D01*
X92856715Y-142432070D01*
X92856532Y-142441207D01*
X92857072Y-142452789D01*
X92858742Y-142464296D01*
X92861623Y-142475656D01*
X92865792Y-142486794D01*
X92871327Y-142497636D01*
X92878307Y-142508108D01*
X92886810Y-142518136D01*
X92891657Y-142522961D01*
X92896914Y-142527647D01*
X92902592Y-142532185D01*
X92908699Y-142536566D01*
X92915245Y-142540781D01*
X92922241Y-142544820D01*
X92929697Y-142548674D01*
X92937621Y-142552334D01*
X92954915Y-142559035D01*
X92974203Y-142564848D01*
X92995562Y-142569700D01*
X93019072Y-142573517D01*
X93044810Y-142576225D01*
X93280950Y-142592973D01*
X93308115Y-142595285D01*
X93334251Y-142598516D01*
X93359370Y-142602644D01*
X93383482Y-142607651D01*
X93406599Y-142613514D01*
X93428732Y-142620213D01*
X93449890Y-142627728D01*
X93470086Y-142636038D01*
X93489330Y-142645122D01*
X93507632Y-142654959D01*
X93525004Y-142665530D01*
X93541457Y-142676813D01*
X93557001Y-142688787D01*
X93571648Y-142701433D01*
X93585408Y-142714729D01*
X93598292Y-142728654D01*
X93610310Y-142743189D01*
X93621475Y-142758312D01*
X93631796Y-142774003D01*
X93641285Y-142790240D01*
X93649952Y-142807005D01*
X93657809Y-142824275D01*
X93664865Y-142842030D01*
X93671133Y-142860249D01*
X93676623Y-142878913D01*
X93681345Y-142897999D01*
X93688532Y-142937359D01*
X93692780Y-142978164D01*
X93694177Y-143020249D01*
X93693425Y-143045998D01*
X93691191Y-143071047D01*
X93687511Y-143095389D01*
X93682417Y-143119014D01*
X93675943Y-143141917D01*
X93668125Y-143164088D01*
X93658995Y-143185521D01*
X93648587Y-143206208D01*
X93636936Y-143226140D01*
X93624075Y-143245311D01*
X93610038Y-143263712D01*
X93594860Y-143281337D01*
X93578575Y-143298176D01*
X93561215Y-143314223D01*
X93542816Y-143329470D01*
X93523411Y-143343909D01*
X93503035Y-143357533D01*
X93481720Y-143370333D01*
X93436414Y-143393433D01*
X93387763Y-143413148D01*
X93336041Y-143429417D01*
X93281518Y-143442177D01*
X93224467Y-143451368D01*
X93165158Y-143456927D01*
X93103865Y-143458794D01*
X93060846Y-143457805D01*
X93018242Y-143454834D01*
X92976074Y-143449877D01*
X92934362Y-143442932D01*
X92893128Y-143433992D01*
X92852391Y-143423056D01*
X92812173Y-143410118D01*
X92772494Y-143395175D01*
X92733375Y-143378223D01*
X92694837Y-143359257D01*
X92656901Y-143338275D01*
X92619586Y-143315272D01*
X92582914Y-143290243D01*
X92546905Y-143263186D01*
X92511581Y-143234096D01*
X92476961Y-143202968D01*
X92676511Y-143006278D01*
X92699841Y-143028264D01*
X92723502Y-143048856D01*
X92747558Y-143068053D01*
X92772076Y-143085849D01*
X92797121Y-143102241D01*
X92822759Y-143117226D01*
X92849057Y-143130801D01*
X92876079Y-143142961D01*
X92903892Y-143153704D01*
X92932562Y-143163026D01*
X92962153Y-143170923D01*
X92992733Y-143177392D01*
X93024367Y-143182430D01*
X93057120Y-143186032D01*
X93091059Y-143188196D01*
X93126249Y-143188919D01*
X93141393Y-143188738D01*
X93156261Y-143188196D01*
X93170840Y-143187292D01*
X93185116Y-143186029D01*
X93199076Y-143184406D01*
X93212707Y-143182423D01*
X93225995Y-143180081D01*
X93238926Y-143177381D01*
X93251487Y-143174322D01*
X93263665Y-143170907D01*
X93275447Y-143167134D01*
X93286818Y-143163004D01*
X93297765Y-143158519D01*
X93308276Y-143153678D01*
X93318335Y-143148482D01*
X93327931Y-143142931D01*
X93337050Y-143137026D01*
X93345677Y-143130767D01*
X93353801Y-143124155D01*
X93361406Y-143117191D01*
X93368481Y-143109874D01*
X93375010Y-143102205D01*
X93380982Y-143094185D01*
X93386382Y-143085815D01*
X93391198Y-143077094D01*
X93395414Y-143068023D01*
X93399019Y-143058603D01*
X93401999Y-143048833D01*
X93404340Y-143038716D01*
X93406029Y-143028251D01*
X93407052Y-143017438D01*
X93407396Y-143006278D01*
X93407175Y-142996994D01*
X93406520Y-142988113D01*
X93405441Y-142979626D01*
X93403946Y-142971523D01*
X93402046Y-142963797D01*
X93399751Y-142956439D01*
X93397070Y-142949439D01*
X93394012Y-142942790D01*
X93390589Y-142936483D01*
X93386808Y-142930508D01*
X93382681Y-142924858D01*
X93378216Y-142919523D01*
X93373424Y-142914495D01*
X93368315Y-142909766D01*
X93362897Y-142905325D01*
X93357181Y-142901166D01*
X93351176Y-142897278D01*
X93344893Y-142893654D01*
X93331528Y-142887161D01*
X93317164Y-142881617D01*
X93301880Y-142876953D01*
X93285752Y-142873100D01*
X93268859Y-142869987D01*
X93251278Y-142867545D01*
X93233088Y-142865704D01*
X92980040Y-142843241D01*
X92936530Y-142838136D01*
X92894632Y-142830222D01*
X92874339Y-142825219D01*
X92854511Y-142819523D01*
X92835168Y-142813136D01*
X92816332Y-142806063D01*
X92798022Y-142798307D01*
X92780260Y-142789869D01*
X92763065Y-142780755D01*
X92746459Y-142770966D01*
X92730462Y-142760506D01*
X92715095Y-142749378D01*
X92700379Y-142737585D01*
X92686333Y-142725131D01*
X92672979Y-142712017D01*
X92660337Y-142698249D01*
X92648428Y-142683828D01*
X92637272Y-142668758D01*
X92626890Y-142653042D01*
X92617303Y-142636683D01*
X92608532Y-142619685D01*
X92600596Y-142602050D01*
X92593516Y-142583781D01*
X92587314Y-142564882D01*
X92582009Y-142545356D01*
X92577622Y-142525206D01*
X92574175Y-142504435D01*
X92571687Y-142483046D01*
X92570179Y-142461043D01*
X92569671Y-142438428D01*
X92570342Y-142411694D01*
X92572334Y-142385785D01*
X92575617Y-142360702D01*
X92580163Y-142336449D01*
X92585943Y-142313025D01*
X92592926Y-142290432D01*
X92601084Y-142268672D01*
X92610387Y-142247747D01*
X92620806Y-142227658D01*
X92632312Y-142208406D01*
X92644874Y-142189993D01*
X92658465Y-142172421D01*
X92673054Y-142155691D01*
X92688612Y-142139805D01*
X92705110Y-142124764D01*
X92722518Y-142110570D01*
X92740808Y-142097224D01*
X92759949Y-142084728D01*
X92779912Y-142073084D01*
X92800669Y-142062292D01*
X92822190Y-142052355D01*
X92844444Y-142043274D01*
X92891040Y-142027685D01*
X92940221Y-142015540D01*
X92991752Y-142006849D01*
X93045400Y-142001626D01*
X93100929Y-141999882D01*
X93146924Y-142000764D01*
G37*
D10*
X124250000Y-137000000D02*
X124255724Y-136691933D01*
X125849857Y-140767691D02*
X125734432Y-140498107D01*
X124403422Y-137868227D02*
X124327240Y-137587019D01*
X129343862Y-141893231D02*
X129316100Y-141595332D01*
D12*
X128000000Y-107000000D02*
X128000000Y-100000000D01*
D10*
X125521919Y-143963790D02*
X125726842Y-143586330D01*
X127737911Y-138144884D02*
X127641468Y-137871968D01*
X125884473Y-143224733D02*
X125998201Y-142877872D01*
X125734432Y-140498107D02*
X125466817Y-139971560D01*
X128755146Y-143937972D02*
X128960123Y-143560835D01*
X131739080Y-144358243D02*
X131994907Y-143963716D01*
X127730310Y-135707710D02*
X127892797Y-135348560D01*
X130812699Y-137276108D02*
X130790339Y-136977250D01*
D12*
X85812969Y-147869819D02*
X85336779Y-147869819D01*
X85336779Y-147869819D02*
X85336779Y-146869819D01*
X86146303Y-147869819D02*
X86146303Y-147203152D01*
X86146303Y-146869819D02*
X86098684Y-146917438D01*
X86098684Y-146917438D02*
X86146303Y-146965057D01*
X86146303Y-146965057D02*
X86193922Y-146917438D01*
X86193922Y-146917438D02*
X86146303Y-146869819D01*
X86146303Y-146869819D02*
X86146303Y-146965057D01*
X87051064Y-147822200D02*
X86955826Y-147869819D01*
X86955826Y-147869819D02*
X86765350Y-147869819D01*
X86765350Y-147869819D02*
X86670112Y-147822200D01*
X86670112Y-147822200D02*
X86622493Y-147774580D01*
X86622493Y-147774580D02*
X86574874Y-147679342D01*
X86574874Y-147679342D02*
X86574874Y-147393628D01*
X86574874Y-147393628D02*
X86622493Y-147298390D01*
X86622493Y-147298390D02*
X86670112Y-147250771D01*
X86670112Y-147250771D02*
X86765350Y-147203152D01*
X86765350Y-147203152D02*
X86955826Y-147203152D01*
X86955826Y-147203152D02*
X87051064Y-147250771D01*
X87860588Y-147822200D02*
X87765350Y-147869819D01*
X87765350Y-147869819D02*
X87574874Y-147869819D01*
X87574874Y-147869819D02*
X87479636Y-147822200D01*
X87479636Y-147822200D02*
X87432017Y-147726961D01*
X87432017Y-147726961D02*
X87432017Y-147346009D01*
X87432017Y-147346009D02*
X87479636Y-147250771D01*
X87479636Y-147250771D02*
X87574874Y-147203152D01*
X87574874Y-147203152D02*
X87765350Y-147203152D01*
X87765350Y-147203152D02*
X87860588Y-147250771D01*
X87860588Y-147250771D02*
X87908207Y-147346009D01*
X87908207Y-147346009D02*
X87908207Y-147441247D01*
X87908207Y-147441247D02*
X87432017Y-147536485D01*
X88336779Y-147203152D02*
X88336779Y-147869819D01*
X88336779Y-147298390D02*
X88384398Y-147250771D01*
X88384398Y-147250771D02*
X88479636Y-147203152D01*
X88479636Y-147203152D02*
X88622493Y-147203152D01*
X88622493Y-147203152D02*
X88717731Y-147250771D01*
X88717731Y-147250771D02*
X88765350Y-147346009D01*
X88765350Y-147346009D02*
X88765350Y-147869819D01*
X89193922Y-147822200D02*
X89289160Y-147869819D01*
X89289160Y-147869819D02*
X89479636Y-147869819D01*
X89479636Y-147869819D02*
X89574874Y-147822200D01*
X89574874Y-147822200D02*
X89622493Y-147726961D01*
X89622493Y-147726961D02*
X89622493Y-147679342D01*
X89622493Y-147679342D02*
X89574874Y-147584104D01*
X89574874Y-147584104D02*
X89479636Y-147536485D01*
X89479636Y-147536485D02*
X89336779Y-147536485D01*
X89336779Y-147536485D02*
X89241541Y-147488866D01*
X89241541Y-147488866D02*
X89193922Y-147393628D01*
X89193922Y-147393628D02*
X89193922Y-147346009D01*
X89193922Y-147346009D02*
X89241541Y-147250771D01*
X89241541Y-147250771D02*
X89336779Y-147203152D01*
X89336779Y-147203152D02*
X89479636Y-147203152D01*
X89479636Y-147203152D02*
X89574874Y-147250771D01*
X90432017Y-147822200D02*
X90336779Y-147869819D01*
X90336779Y-147869819D02*
X90146303Y-147869819D01*
X90146303Y-147869819D02*
X90051065Y-147822200D01*
X90051065Y-147822200D02*
X90003446Y-147726961D01*
X90003446Y-147726961D02*
X90003446Y-147346009D01*
X90003446Y-147346009D02*
X90051065Y-147250771D01*
X90051065Y-147250771D02*
X90146303Y-147203152D01*
X90146303Y-147203152D02*
X90336779Y-147203152D01*
X90336779Y-147203152D02*
X90432017Y-147250771D01*
X90432017Y-147250771D02*
X90479636Y-147346009D01*
X90479636Y-147346009D02*
X90479636Y-147441247D01*
X90479636Y-147441247D02*
X90003446Y-147536485D01*
X91336779Y-147869819D02*
X91336779Y-146869819D01*
X91336779Y-147822200D02*
X91241541Y-147869819D01*
X91241541Y-147869819D02*
X91051065Y-147869819D01*
X91051065Y-147869819D02*
X90955827Y-147822200D01*
X90955827Y-147822200D02*
X90908208Y-147774580D01*
X90908208Y-147774580D02*
X90860589Y-147679342D01*
X90860589Y-147679342D02*
X90860589Y-147393628D01*
X90860589Y-147393628D02*
X90908208Y-147298390D01*
X90908208Y-147298390D02*
X90955827Y-147250771D01*
X90955827Y-147250771D02*
X91051065Y-147203152D01*
X91051065Y-147203152D02*
X91241541Y-147203152D01*
X91241541Y-147203152D02*
X91336779Y-147250771D01*
X93003446Y-147203152D02*
X93003446Y-147869819D01*
X92574875Y-147203152D02*
X92574875Y-147726961D01*
X92574875Y-147726961D02*
X92622494Y-147822200D01*
X92622494Y-147822200D02*
X92717732Y-147869819D01*
X92717732Y-147869819D02*
X92860589Y-147869819D01*
X92860589Y-147869819D02*
X92955827Y-147822200D01*
X92955827Y-147822200D02*
X93003446Y-147774580D01*
X93479637Y-147203152D02*
X93479637Y-147869819D01*
X93479637Y-147298390D02*
X93527256Y-147250771D01*
X93527256Y-147250771D02*
X93622494Y-147203152D01*
X93622494Y-147203152D02*
X93765351Y-147203152D01*
X93765351Y-147203152D02*
X93860589Y-147250771D01*
X93860589Y-147250771D02*
X93908208Y-147346009D01*
X93908208Y-147346009D02*
X93908208Y-147869819D01*
X94812970Y-147869819D02*
X94812970Y-146869819D01*
X94812970Y-147822200D02*
X94717732Y-147869819D01*
X94717732Y-147869819D02*
X94527256Y-147869819D01*
X94527256Y-147869819D02*
X94432018Y-147822200D01*
X94432018Y-147822200D02*
X94384399Y-147774580D01*
X94384399Y-147774580D02*
X94336780Y-147679342D01*
X94336780Y-147679342D02*
X94336780Y-147393628D01*
X94336780Y-147393628D02*
X94384399Y-147298390D01*
X94384399Y-147298390D02*
X94432018Y-147250771D01*
X94432018Y-147250771D02*
X94527256Y-147203152D01*
X94527256Y-147203152D02*
X94717732Y-147203152D01*
X94717732Y-147203152D02*
X94812970Y-147250771D01*
X95670113Y-147822200D02*
X95574875Y-147869819D01*
X95574875Y-147869819D02*
X95384399Y-147869819D01*
X95384399Y-147869819D02*
X95289161Y-147822200D01*
X95289161Y-147822200D02*
X95241542Y-147726961D01*
X95241542Y-147726961D02*
X95241542Y-147346009D01*
X95241542Y-147346009D02*
X95289161Y-147250771D01*
X95289161Y-147250771D02*
X95384399Y-147203152D01*
X95384399Y-147203152D02*
X95574875Y-147203152D01*
X95574875Y-147203152D02*
X95670113Y-147250771D01*
X95670113Y-147250771D02*
X95717732Y-147346009D01*
X95717732Y-147346009D02*
X95717732Y-147441247D01*
X95717732Y-147441247D02*
X95241542Y-147536485D01*
X96146304Y-147869819D02*
X96146304Y-147203152D01*
X96146304Y-147393628D02*
X96193923Y-147298390D01*
X96193923Y-147298390D02*
X96241542Y-147250771D01*
X96241542Y-147250771D02*
X96336780Y-147203152D01*
X96336780Y-147203152D02*
X96432018Y-147203152D01*
X97527257Y-147869819D02*
X97527257Y-146869819D01*
X97527257Y-146869819D02*
X97860590Y-147584104D01*
X97860590Y-147584104D02*
X98193923Y-146869819D01*
X98193923Y-146869819D02*
X98193923Y-147869819D01*
X98670114Y-147869819D02*
X98670114Y-146869819D01*
X99003447Y-146869819D02*
X99574875Y-146869819D01*
X99289161Y-147869819D02*
X99289161Y-146869819D01*
X101146304Y-147869819D02*
X100670114Y-147869819D01*
X100670114Y-147869819D02*
X100670114Y-146869819D01*
X101479638Y-147869819D02*
X101479638Y-147203152D01*
X101479638Y-146869819D02*
X101432019Y-146917438D01*
X101432019Y-146917438D02*
X101479638Y-146965057D01*
X101479638Y-146965057D02*
X101527257Y-146917438D01*
X101527257Y-146917438D02*
X101479638Y-146869819D01*
X101479638Y-146869819D02*
X101479638Y-146965057D01*
X102384399Y-147822200D02*
X102289161Y-147869819D01*
X102289161Y-147869819D02*
X102098685Y-147869819D01*
X102098685Y-147869819D02*
X102003447Y-147822200D01*
X102003447Y-147822200D02*
X101955828Y-147774580D01*
X101955828Y-147774580D02*
X101908209Y-147679342D01*
X101908209Y-147679342D02*
X101908209Y-147393628D01*
X101908209Y-147393628D02*
X101955828Y-147298390D01*
X101955828Y-147298390D02*
X102003447Y-147250771D01*
X102003447Y-147250771D02*
X102098685Y-147203152D01*
X102098685Y-147203152D02*
X102289161Y-147203152D01*
X102289161Y-147203152D02*
X102384399Y-147250771D01*
X103193923Y-147822200D02*
X103098685Y-147869819D01*
X103098685Y-147869819D02*
X102908209Y-147869819D01*
X102908209Y-147869819D02*
X102812971Y-147822200D01*
X102812971Y-147822200D02*
X102765352Y-147726961D01*
X102765352Y-147726961D02*
X102765352Y-147346009D01*
X102765352Y-147346009D02*
X102812971Y-147250771D01*
X102812971Y-147250771D02*
X102908209Y-147203152D01*
X102908209Y-147203152D02*
X103098685Y-147203152D01*
X103098685Y-147203152D02*
X103193923Y-147250771D01*
X103193923Y-147250771D02*
X103241542Y-147346009D01*
X103241542Y-147346009D02*
X103241542Y-147441247D01*
X103241542Y-147441247D02*
X102765352Y-147536485D01*
X103670114Y-147203152D02*
X103670114Y-147869819D01*
X103670114Y-147298390D02*
X103717733Y-147250771D01*
X103717733Y-147250771D02*
X103812971Y-147203152D01*
X103812971Y-147203152D02*
X103955828Y-147203152D01*
X103955828Y-147203152D02*
X104051066Y-147250771D01*
X104051066Y-147250771D02*
X104098685Y-147346009D01*
X104098685Y-147346009D02*
X104098685Y-147869819D01*
X104527257Y-147822200D02*
X104622495Y-147869819D01*
X104622495Y-147869819D02*
X104812971Y-147869819D01*
X104812971Y-147869819D02*
X104908209Y-147822200D01*
X104908209Y-147822200D02*
X104955828Y-147726961D01*
X104955828Y-147726961D02*
X104955828Y-147679342D01*
X104955828Y-147679342D02*
X104908209Y-147584104D01*
X104908209Y-147584104D02*
X104812971Y-147536485D01*
X104812971Y-147536485D02*
X104670114Y-147536485D01*
X104670114Y-147536485D02*
X104574876Y-147488866D01*
X104574876Y-147488866D02*
X104527257Y-147393628D01*
X104527257Y-147393628D02*
X104527257Y-147346009D01*
X104527257Y-147346009D02*
X104574876Y-147250771D01*
X104574876Y-147250771D02*
X104670114Y-147203152D01*
X104670114Y-147203152D02*
X104812971Y-147203152D01*
X104812971Y-147203152D02*
X104908209Y-147250771D01*
X105765352Y-147822200D02*
X105670114Y-147869819D01*
X105670114Y-147869819D02*
X105479638Y-147869819D01*
X105479638Y-147869819D02*
X105384400Y-147822200D01*
X105384400Y-147822200D02*
X105336781Y-147726961D01*
X105336781Y-147726961D02*
X105336781Y-147346009D01*
X105336781Y-147346009D02*
X105384400Y-147250771D01*
X105384400Y-147250771D02*
X105479638Y-147203152D01*
X105479638Y-147203152D02*
X105670114Y-147203152D01*
X105670114Y-147203152D02*
X105765352Y-147250771D01*
X105765352Y-147250771D02*
X105812971Y-147346009D01*
X105812971Y-147346009D02*
X105812971Y-147441247D01*
X105812971Y-147441247D02*
X105336781Y-147536485D01*
D13*
X111847116Y-55979276D02*
X111847116Y-51979276D01*
X111847116Y-51979276D02*
X113370926Y-51979276D01*
X113370926Y-51979276D02*
X113751878Y-52169752D01*
X113751878Y-52169752D02*
X113942355Y-52360228D01*
X113942355Y-52360228D02*
X114132831Y-52741180D01*
X114132831Y-52741180D02*
X114132831Y-53312609D01*
X114132831Y-53312609D02*
X113942355Y-53693561D01*
X113942355Y-53693561D02*
X113751878Y-53884038D01*
X113751878Y-53884038D02*
X113370926Y-54074514D01*
X113370926Y-54074514D02*
X111847116Y-54074514D01*
X118132831Y-55598323D02*
X117942355Y-55788800D01*
X117942355Y-55788800D02*
X117370926Y-55979276D01*
X117370926Y-55979276D02*
X116989974Y-55979276D01*
X116989974Y-55979276D02*
X116418545Y-55788800D01*
X116418545Y-55788800D02*
X116037593Y-55407847D01*
X116037593Y-55407847D02*
X115847116Y-55026895D01*
X115847116Y-55026895D02*
X115656640Y-54264990D01*
X115656640Y-54264990D02*
X115656640Y-53693561D01*
X115656640Y-53693561D02*
X115847116Y-52931657D01*
X115847116Y-52931657D02*
X116037593Y-52550704D01*
X116037593Y-52550704D02*
X116418545Y-52169752D01*
X116418545Y-52169752D02*
X116989974Y-51979276D01*
X116989974Y-51979276D02*
X117370926Y-51979276D01*
X117370926Y-51979276D02*
X117942355Y-52169752D01*
X117942355Y-52169752D02*
X118132831Y-52360228D01*
X121180450Y-53884038D02*
X121751878Y-54074514D01*
X121751878Y-54074514D02*
X121942355Y-54264990D01*
X121942355Y-54264990D02*
X122132831Y-54645942D01*
X122132831Y-54645942D02*
X122132831Y-55217371D01*
X122132831Y-55217371D02*
X121942355Y-55598323D01*
X121942355Y-55598323D02*
X121751878Y-55788800D01*
X121751878Y-55788800D02*
X121370926Y-55979276D01*
X121370926Y-55979276D02*
X119847116Y-55979276D01*
X119847116Y-55979276D02*
X119847116Y-51979276D01*
X119847116Y-51979276D02*
X121180450Y-51979276D01*
X121180450Y-51979276D02*
X121561402Y-52169752D01*
X121561402Y-52169752D02*
X121751878Y-52360228D01*
X121751878Y-52360228D02*
X121942355Y-52741180D01*
X121942355Y-52741180D02*
X121942355Y-53122133D01*
X121942355Y-53122133D02*
X121751878Y-53503085D01*
X121751878Y-53503085D02*
X121561402Y-53693561D01*
X121561402Y-53693561D02*
X121180450Y-53884038D01*
X121180450Y-53884038D02*
X119847116Y-53884038D01*
X126894735Y-55979276D02*
X126894735Y-51979276D01*
X126894735Y-53884038D02*
X129180450Y-53884038D01*
X129180450Y-55979276D02*
X129180450Y-51979276D01*
X132609021Y-55788800D02*
X132228069Y-55979276D01*
X132228069Y-55979276D02*
X131466164Y-55979276D01*
X131466164Y-55979276D02*
X131085211Y-55788800D01*
X131085211Y-55788800D02*
X130894735Y-55407847D01*
X130894735Y-55407847D02*
X130894735Y-53884038D01*
X130894735Y-53884038D02*
X131085211Y-53503085D01*
X131085211Y-53503085D02*
X131466164Y-53312609D01*
X131466164Y-53312609D02*
X132228069Y-53312609D01*
X132228069Y-53312609D02*
X132609021Y-53503085D01*
X132609021Y-53503085D02*
X132799497Y-53884038D01*
X132799497Y-53884038D02*
X132799497Y-54264990D01*
X132799497Y-54264990D02*
X130894735Y-54645942D01*
X136228068Y-55979276D02*
X136228068Y-53884038D01*
X136228068Y-53884038D02*
X136037592Y-53503085D01*
X136037592Y-53503085D02*
X135656640Y-53312609D01*
X135656640Y-53312609D02*
X134894735Y-53312609D01*
X134894735Y-53312609D02*
X134513782Y-53503085D01*
X136228068Y-55788800D02*
X135847116Y-55979276D01*
X135847116Y-55979276D02*
X134894735Y-55979276D01*
X134894735Y-55979276D02*
X134513782Y-55788800D01*
X134513782Y-55788800D02*
X134323306Y-55407847D01*
X134323306Y-55407847D02*
X134323306Y-55026895D01*
X134323306Y-55026895D02*
X134513782Y-54645942D01*
X134513782Y-54645942D02*
X134894735Y-54455466D01*
X134894735Y-54455466D02*
X135847116Y-54455466D01*
X135847116Y-54455466D02*
X136228068Y-54264990D01*
X137561402Y-53312609D02*
X139085211Y-53312609D01*
X138132830Y-51979276D02*
X138132830Y-55407847D01*
X138132830Y-55407847D02*
X138323307Y-55788800D01*
X138323307Y-55788800D02*
X138704259Y-55979276D01*
X138704259Y-55979276D02*
X139085211Y-55979276D01*
X141942354Y-55788800D02*
X141561402Y-55979276D01*
X141561402Y-55979276D02*
X140799497Y-55979276D01*
X140799497Y-55979276D02*
X140418544Y-55788800D01*
X140418544Y-55788800D02*
X140228068Y-55407847D01*
X140228068Y-55407847D02*
X140228068Y-53884038D01*
X140228068Y-53884038D02*
X140418544Y-53503085D01*
X140418544Y-53503085D02*
X140799497Y-53312609D01*
X140799497Y-53312609D02*
X141561402Y-53312609D01*
X141561402Y-53312609D02*
X141942354Y-53503085D01*
X141942354Y-53503085D02*
X142132830Y-53884038D01*
X142132830Y-53884038D02*
X142132830Y-54264990D01*
X142132830Y-54264990D02*
X140228068Y-54645942D01*
X143847115Y-55979276D02*
X143847115Y-53312609D01*
X143847115Y-54074514D02*
X144037592Y-53693561D01*
X144037592Y-53693561D02*
X144228068Y-53503085D01*
X144228068Y-53503085D02*
X144609020Y-53312609D01*
X144609020Y-53312609D02*
X144989973Y-53312609D01*
D12*
X167166666Y-148454819D02*
X167166666Y-149169104D01*
X167166666Y-149169104D02*
X167119047Y-149311961D01*
X167119047Y-149311961D02*
X167023809Y-149407200D01*
X167023809Y-149407200D02*
X166880952Y-149454819D01*
X166880952Y-149454819D02*
X166785714Y-149454819D01*
X168166666Y-149454819D02*
X167595238Y-149454819D01*
X167880952Y-149454819D02*
X167880952Y-148454819D01*
X167880952Y-148454819D02*
X167785714Y-148597676D01*
X167785714Y-148597676D02*
X167690476Y-148692914D01*
X167690476Y-148692914D02*
X167595238Y-148740533D01*
X174166666Y-148454819D02*
X174166666Y-149169104D01*
X174166666Y-149169104D02*
X174119047Y-149311961D01*
X174119047Y-149311961D02*
X174023809Y-149407200D01*
X174023809Y-149407200D02*
X173880952Y-149454819D01*
X173880952Y-149454819D02*
X173785714Y-149454819D01*
X174595238Y-148550057D02*
X174642857Y-148502438D01*
X174642857Y-148502438D02*
X174738095Y-148454819D01*
X174738095Y-148454819D02*
X174976190Y-148454819D01*
X174976190Y-148454819D02*
X175071428Y-148502438D01*
X175071428Y-148502438D02*
X175119047Y-148550057D01*
X175119047Y-148550057D02*
X175166666Y-148645295D01*
X175166666Y-148645295D02*
X175166666Y-148740533D01*
X175166666Y-148740533D02*
X175119047Y-148883390D01*
X175119047Y-148883390D02*
X174547619Y-149454819D01*
X174547619Y-149454819D02*
X175166666Y-149454819D01*
M02*
