%TF.GenerationSoftware,KiCad,Pcbnew,7.0.10-7.0.10~ubuntu22.04.1*%
%TF.CreationDate,2024-01-25T12:42:20+01:00*%
%TF.ProjectId,heater,68656174-6572-42e6-9b69-6361645f7063,rev?*%
%TF.SameCoordinates,Original*%
%TF.FileFunction,Copper,L1,Top*%
%TF.FilePolarity,Positive*%
%FSLAX46Y46*%
G04 Gerber Fmt 4.6, Leading zero omitted, Abs format (unit mm)*
G04 Created by KiCad (PCBNEW 7.0.10-7.0.10~ubuntu22.04.1) date 2024-01-25 12:42:20*
%MOMM*%
%LPD*%
G01*
G04 APERTURE LIST*
%TA.AperFunction,SMDPad,CuDef*%
%ADD10R,5.000000X5.000000*%
%TD*%
%TA.AperFunction,Conductor*%
%ADD11C,1.000000*%
%TD*%
G04 APERTURE END LIST*
D10*
%TO.P,J1,1,Pin_1*%
%TO.N,Net-(J1-Pin_1)*%
X167250000Y-145500000D03*
%TD*%
%TO.P,J2,1,Pin_1*%
%TO.N,Net-(J1-Pin_1)*%
X174500000Y-145500000D03*
%TD*%
D11*
%TO.N,Net-(J1-Pin_1)*%
X112500000Y-51600000D02*
X112500000Y-146900000D01*
X82500000Y-141400000D02*
X82500000Y-56650000D01*
X131700000Y-51600000D02*
X131700000Y-146900000D01*
X94500000Y-146900000D02*
X94500000Y-51600000D01*
X128100000Y-146900000D02*
X128100000Y-51600000D01*
X177000000Y-143000000D02*
X174500000Y-145500000D01*
X132900000Y-146900000D02*
X132900000Y-51600000D01*
X122100000Y-51600000D02*
X122100000Y-146900000D01*
X104100000Y-146900000D02*
X104100000Y-51600000D01*
X120900000Y-146900000D02*
X120900000Y-51600000D01*
X164100000Y-139400000D02*
X164100000Y-51600000D01*
X177000000Y-140000000D02*
X177000000Y-141640680D01*
X83700000Y-56650000D02*
X83700000Y-142400000D01*
X173700000Y-139400000D02*
X173700000Y-57150000D01*
X168900000Y-139400000D02*
X168900000Y-51600000D01*
X84750000Y-148520280D02*
X85229720Y-149000000D01*
X141300000Y-51600000D02*
X141300000Y-146900000D01*
X161700000Y-139400000D02*
X161700000Y-51600000D01*
X81300000Y-141500000D02*
X81300000Y-57099996D01*
X88500000Y-51600000D02*
X88500000Y-146900000D01*
X149700000Y-146900000D02*
X149700000Y-51600000D01*
X130500000Y-146900000D02*
X130500000Y-51600000D01*
X106500000Y-146900000D02*
X106500000Y-51600000D01*
X96900000Y-146900000D02*
X96900000Y-51600000D01*
X172500000Y-55800000D02*
X172500000Y-139400000D01*
X137700000Y-146900000D02*
X137700000Y-51600000D01*
X114900000Y-51600000D02*
X114900000Y-146900000D01*
X110100000Y-51600000D02*
X110100000Y-146900000D01*
X117300000Y-51600000D02*
X117300000Y-146900000D01*
X147300000Y-146900000D02*
X147300000Y-51600000D01*
X116100000Y-146900000D02*
X116100000Y-51600000D01*
X113700000Y-146900000D02*
X113700000Y-51600000D01*
X165300000Y-51600000D02*
X165300000Y-139400000D01*
X153300000Y-51600000D02*
X153300000Y-146900000D01*
X142500000Y-146900000D02*
X142500000Y-51600000D01*
X86100000Y-51600000D02*
X86100000Y-146900000D01*
X84750000Y-145682998D02*
X84750000Y-148520280D01*
X136500000Y-51600000D02*
X136500000Y-146900000D01*
X82510587Y-143443585D02*
X84750000Y-145682998D01*
X101700000Y-146900000D02*
X101700000Y-51600000D01*
X100500000Y-51600000D02*
X100500000Y-146900000D01*
X158100000Y-51600000D02*
X158100000Y-143100000D01*
X155700000Y-51600000D02*
X155700000Y-146900000D01*
X148500000Y-51600000D02*
X148500000Y-146900000D01*
X143700000Y-51600000D02*
X143700000Y-146900000D01*
X118500000Y-146900000D02*
X118500000Y-51600000D01*
X175500000Y-140000000D02*
X177000000Y-140000000D01*
X84900000Y-142400000D02*
X84900000Y-51600000D01*
X98100000Y-51600000D02*
X98100000Y-146900000D01*
X167700000Y-51600000D02*
X167700000Y-139400000D01*
X129300000Y-51600000D02*
X129300000Y-146900000D01*
X162900000Y-51600000D02*
X162900000Y-139400000D01*
X89700000Y-146900000D02*
X89700000Y-51600000D01*
X171300000Y-139400000D02*
X171300000Y-55800000D01*
X166500000Y-139400000D02*
X166500000Y-51600000D01*
X140100000Y-146900000D02*
X140100000Y-51600000D01*
X176997289Y-141643391D02*
X177000000Y-141646102D01*
X144900000Y-146900000D02*
X144900000Y-51600000D01*
X134100000Y-51600000D02*
X134100000Y-146900000D01*
X123300000Y-146900000D02*
X123300000Y-51600000D01*
X105300000Y-51600000D02*
X105300000Y-146900000D01*
X90900000Y-51600000D02*
X90900000Y-146900000D01*
X177000000Y-141646102D02*
X177000000Y-143000000D01*
X160500000Y-51600000D02*
X160500000Y-139400000D01*
X102900000Y-51600000D02*
X102900000Y-146900000D01*
X80000000Y-143000000D02*
X80443585Y-143443585D01*
X111300000Y-146900000D02*
X111300000Y-51600000D01*
X108900000Y-146900000D02*
X108900000Y-51600000D01*
X92100000Y-146900000D02*
X92100000Y-51600000D01*
X146100000Y-51600000D02*
X146100000Y-146900000D01*
X159300000Y-143100000D02*
X159300000Y-51600000D01*
X174900000Y-57150000D02*
X174900000Y-139400000D01*
X107700000Y-51600000D02*
X107700000Y-146900000D01*
X156900000Y-146900000D02*
X156900000Y-51600000D01*
X154500000Y-146900000D02*
X154500000Y-51600000D01*
X80443585Y-143443585D02*
X82510587Y-143443585D01*
X135300000Y-146900000D02*
X135300000Y-51600000D01*
X150900000Y-51600000D02*
X150900000Y-146900000D01*
X87300000Y-146900000D02*
X87300000Y-51600000D01*
X85229720Y-149000000D02*
X163750000Y-149000000D01*
X126900000Y-51600000D02*
X126900000Y-146900000D01*
X152100000Y-146900000D02*
X152100000Y-51600000D01*
X95700000Y-51600000D02*
X95700000Y-146900000D01*
X124500000Y-51600000D02*
X124500000Y-146900000D01*
X80000000Y-57000000D02*
X80000000Y-143000000D01*
X125700000Y-146900000D02*
X125700000Y-51600000D01*
X138900000Y-51600000D02*
X138900000Y-146900000D01*
X119700000Y-51600000D02*
X119700000Y-146900000D01*
X99300000Y-146900000D02*
X99300000Y-51600000D01*
X93300000Y-51600000D02*
X93300000Y-146900000D01*
X177000000Y-141640680D02*
X176997289Y-141643391D01*
X170100000Y-51600000D02*
X170100000Y-139400000D01*
X163750000Y-149000000D02*
X167250000Y-145500000D01*
X159900000Y-51000000D02*
G75*
G03*
X159300000Y-51600000I0J-600000D01*
G01*
X122700000Y-147500000D02*
G75*
G03*
X123300000Y-146900000I0J600000D01*
G01*
X160500000Y-51600000D02*
G75*
G03*
X159900000Y-51000000I-600000J0D01*
G01*
X100500000Y-146900000D02*
G75*
G03*
X101100000Y-147500000I600000J0D01*
G01*
X150900000Y-146900000D02*
G75*
G03*
X151500000Y-147500000I600000J0D01*
G01*
X167100000Y-51000000D02*
G75*
G03*
X166500000Y-51600000I0J-600000D01*
G01*
X172500000Y-55800000D02*
G75*
G03*
X171900000Y-55200000I-600000J0D01*
G01*
X119700000Y-146900000D02*
G75*
G03*
X120300000Y-147500000I600000J0D01*
G01*
X91500000Y-147500000D02*
G75*
G03*
X92100000Y-146900000I0J600000D01*
G01*
X124500000Y-51600000D02*
G75*
G03*
X123900000Y-51000000I-600000J0D01*
G01*
X122100000Y-51600000D02*
G75*
G03*
X121500000Y-51000000I-600000J0D01*
G01*
X89100000Y-147500000D02*
G75*
G03*
X89700000Y-146900000I0J600000D01*
G01*
X155100000Y-51000000D02*
G75*
G03*
X154500000Y-51600000I0J-600000D01*
G01*
X105900000Y-147500000D02*
G75*
G03*
X106500000Y-146900000I0J600000D01*
G01*
X157500000Y-51000000D02*
G75*
G03*
X156900000Y-51600000I0J-600000D01*
G01*
X112500000Y-51600000D02*
G75*
G03*
X111900000Y-51000000I-600000J0D01*
G01*
X100500000Y-51600000D02*
G75*
G03*
X99900000Y-51000000I-600000J0D01*
G01*
X126900000Y-146900000D02*
G75*
G03*
X127500000Y-147500000I600000J0D01*
G01*
X113100000Y-147500000D02*
G75*
G03*
X113700000Y-146900000I0J600000D01*
G01*
X116700000Y-51000000D02*
G75*
G03*
X116100000Y-51600000I0J-600000D01*
G01*
X81300000Y-57099996D02*
G75*
G03*
X80600000Y-56400000I-700000J-4D01*
G01*
X115500000Y-147500000D02*
G75*
G03*
X116100000Y-146900000I0J600000D01*
G01*
X117900000Y-147500000D02*
G75*
G03*
X118500000Y-146900000I0J600000D01*
G01*
X131100000Y-51000000D02*
G75*
G03*
X130500000Y-51600000I0J-600000D01*
G01*
X152700000Y-51000000D02*
G75*
G03*
X152100000Y-51600000I0J-600000D01*
G01*
X162300000Y-51000000D02*
G75*
G03*
X161700000Y-51600000I0J-600000D01*
G01*
X83100000Y-56050000D02*
G75*
G03*
X82500000Y-56650000I0J-600000D01*
G01*
X110700000Y-147500000D02*
G75*
G03*
X111300000Y-146900000I0J600000D01*
G01*
X141900000Y-147500000D02*
G75*
G03*
X142500000Y-146900000I0J600000D01*
G01*
X90900000Y-146900000D02*
G75*
G03*
X91500000Y-147500000I600000J0D01*
G01*
X158700000Y-143700000D02*
G75*
G03*
X159300000Y-143100000I0J600000D01*
G01*
X165300000Y-51600000D02*
G75*
G03*
X164700000Y-51000000I-600000J0D01*
G01*
X155700000Y-51600000D02*
G75*
G03*
X155100000Y-51000000I-600000J0D01*
G01*
X127500000Y-147500000D02*
G75*
G03*
X128100000Y-146900000I0J600000D01*
G01*
X101100000Y-147500000D02*
G75*
G03*
X101700000Y-146900000I0J600000D01*
G01*
X141300000Y-146900000D02*
G75*
G03*
X141900000Y-147500000I600000J0D01*
G01*
X136500000Y-146900000D02*
G75*
G03*
X137100000Y-147500000I600000J0D01*
G01*
X144300000Y-147500000D02*
G75*
G03*
X144900000Y-146900000I0J600000D01*
G01*
X105300000Y-51600000D02*
G75*
G03*
X104700000Y-51000000I-600000J0D01*
G01*
X171900000Y-55200000D02*
G75*
G03*
X171300000Y-55800000I0J-600000D01*
G01*
X162900000Y-51600000D02*
G75*
G03*
X162300000Y-51000000I-600000J0D01*
G01*
X138300000Y-51000000D02*
G75*
G03*
X137700000Y-51600000I0J-600000D01*
G01*
X150900000Y-51600000D02*
G75*
G03*
X150300000Y-51000000I-600000J0D01*
G01*
X129300000Y-51600000D02*
G75*
G03*
X128700000Y-51000000I-600000J0D01*
G01*
X93300000Y-51600000D02*
G75*
G03*
X92700000Y-51000000I-600000J0D01*
G01*
X111900000Y-51000000D02*
G75*
G03*
X111300000Y-51600000I0J-600000D01*
G01*
X143100000Y-51000000D02*
G75*
G03*
X142500000Y-51600000I0J-600000D01*
G01*
X98700000Y-147500000D02*
G75*
G03*
X99300000Y-146900000I0J600000D01*
G01*
X165300000Y-139400000D02*
G75*
G03*
X165900000Y-140000000I600000J0D01*
G01*
X107700000Y-146900000D02*
G75*
G03*
X108300000Y-147500000I600000J0D01*
G01*
X150300000Y-51000000D02*
G75*
G03*
X149700000Y-51600000I0J-600000D01*
G01*
X153300000Y-146900000D02*
G75*
G03*
X153900000Y-147500000I600000J0D01*
G01*
X138900000Y-51600000D02*
G75*
G03*
X138300000Y-51000000I-600000J0D01*
G01*
X165900000Y-140000000D02*
G75*
G03*
X166500000Y-139400000I0J600000D01*
G01*
X117300000Y-51600000D02*
G75*
G03*
X116700000Y-51000000I-600000J0D01*
G01*
X126300000Y-51000000D02*
G75*
G03*
X125700000Y-51600000I0J-600000D01*
G01*
X129900000Y-147500000D02*
G75*
G03*
X130500000Y-146900000I0J600000D01*
G01*
X170100000Y-51600000D02*
G75*
G03*
X169500000Y-51000000I-600000J0D01*
G01*
X93900000Y-147500000D02*
G75*
G03*
X94500000Y-146900000I0J600000D01*
G01*
X147900000Y-51000000D02*
G75*
G03*
X147300000Y-51600000I0J-600000D01*
G01*
X134700000Y-147500000D02*
G75*
G03*
X135300000Y-146900000I0J600000D01*
G01*
X167700000Y-139400000D02*
G75*
G03*
X168300000Y-140000000I600000J0D01*
G01*
X158100000Y-51600000D02*
G75*
G03*
X157500000Y-51000000I-600000J0D01*
G01*
X90300000Y-51000000D02*
G75*
G03*
X89700000Y-51600000I0J-600000D01*
G01*
X172500000Y-139400000D02*
G75*
G03*
X173100000Y-140000000I600000J0D01*
G01*
X117300000Y-146900000D02*
G75*
G03*
X117900000Y-147500000I600000J0D01*
G01*
X138900000Y-146900000D02*
G75*
G03*
X139500000Y-147500000I600000J0D01*
G01*
X114900000Y-146900000D02*
G75*
G03*
X115500000Y-147500000I600000J0D01*
G01*
X162900000Y-139400000D02*
G75*
G03*
X163500000Y-140000000I600000J0D01*
G01*
X134100000Y-146900000D02*
G75*
G03*
X134700000Y-147500000I600000J0D01*
G01*
X158100000Y-143100000D02*
G75*
G03*
X158700000Y-143700000I600000J0D01*
G01*
X123900000Y-51000000D02*
G75*
G03*
X123300000Y-51600000I0J-600000D01*
G01*
X112500000Y-146900000D02*
G75*
G03*
X113100000Y-147500000I600000J0D01*
G01*
X143700000Y-51600000D02*
G75*
G03*
X143100000Y-51000000I-600000J0D01*
G01*
X81900000Y-142100000D02*
G75*
G03*
X82500000Y-141500000I0J600000D01*
G01*
X95700000Y-51600000D02*
G75*
G03*
X95100000Y-51000000I-600000J0D01*
G01*
X98100000Y-51600000D02*
G75*
G03*
X97500000Y-51000000I-600000J0D01*
G01*
X156300000Y-147500000D02*
G75*
G03*
X156900000Y-146900000I0J600000D01*
G01*
X90900000Y-51600000D02*
G75*
G03*
X90300000Y-51000000I-600000J0D01*
G01*
X174900000Y-139400000D02*
G75*
G03*
X175500000Y-140000000I600000J0D01*
G01*
X148500000Y-146900000D02*
G75*
G03*
X149100000Y-147500000I600000J0D01*
G01*
X128700000Y-51000000D02*
G75*
G03*
X128100000Y-51600000I0J-600000D01*
G01*
X86100000Y-146900000D02*
G75*
G03*
X86700000Y-147500000I600000J0D01*
G01*
X80600000Y-56400000D02*
G75*
G03*
X80000000Y-57000000I0J-600000D01*
G01*
X160500000Y-139400000D02*
G75*
G03*
X161100000Y-140000000I600000J0D01*
G01*
X121500000Y-51000000D02*
G75*
G03*
X120900000Y-51600000I0J-600000D01*
G01*
X136500000Y-51600000D02*
G75*
G03*
X135900000Y-51000000I-600000J0D01*
G01*
X174300000Y-56550000D02*
G75*
G03*
X173700000Y-57150000I0J-600000D01*
G01*
X174900000Y-57150000D02*
G75*
G03*
X174300000Y-56550000I-600000J0D01*
G01*
X102300000Y-51000000D02*
G75*
G03*
X101700000Y-51600000I0J-600000D01*
G01*
X87900000Y-51000000D02*
G75*
G03*
X87300000Y-51600000I0J-600000D01*
G01*
X146700000Y-147500000D02*
G75*
G03*
X147300000Y-146900000I0J600000D01*
G01*
X107100000Y-51000000D02*
G75*
G03*
X106500000Y-51600000I0J-600000D01*
G01*
X99900000Y-51000000D02*
G75*
G03*
X99300000Y-51600000I0J-600000D01*
G01*
X134100000Y-51600000D02*
G75*
G03*
X133500000Y-51000000I-600000J0D01*
G01*
X97500000Y-51000000D02*
G75*
G03*
X96900000Y-51600000I0J-600000D01*
G01*
X83700000Y-142400000D02*
G75*
G03*
X84300000Y-143000000I600000J0D01*
G01*
X114900000Y-51600000D02*
G75*
G03*
X114300000Y-51000000I-600000J0D01*
G01*
X85500000Y-51000000D02*
G75*
G03*
X84900000Y-51600000I0J-600000D01*
G01*
X168300000Y-140000000D02*
G75*
G03*
X168900000Y-139400000I0J600000D01*
G01*
X122100000Y-146900000D02*
G75*
G03*
X122700000Y-147500000I600000J0D01*
G01*
X86100000Y-51600000D02*
G75*
G03*
X85500000Y-51000000I-600000J0D01*
G01*
X145500000Y-51000000D02*
G75*
G03*
X144900000Y-51600000I0J-600000D01*
G01*
X103500000Y-147500000D02*
G75*
G03*
X104100000Y-146900000I0J600000D01*
G01*
X119100000Y-51000000D02*
G75*
G03*
X118500000Y-51600000I0J-600000D01*
G01*
X164700000Y-51000000D02*
G75*
G03*
X164100000Y-51600000I0J-600000D01*
G01*
X124500000Y-146900000D02*
G75*
G03*
X125100000Y-147500000I600000J0D01*
G01*
X132300000Y-147500000D02*
G75*
G03*
X132900000Y-146900000I0J600000D01*
G01*
X146100000Y-51600000D02*
G75*
G03*
X145500000Y-51000000I-600000J0D01*
G01*
X153300000Y-51600000D02*
G75*
G03*
X152700000Y-51000000I-600000J0D01*
G01*
X131700000Y-146900000D02*
G75*
G03*
X132300000Y-147500000I600000J0D01*
G01*
X110100000Y-146900000D02*
G75*
G03*
X110700000Y-147500000I600000J0D01*
G01*
X161100000Y-140000000D02*
G75*
G03*
X161700000Y-139400000I0J600000D01*
G01*
X125100000Y-147500000D02*
G75*
G03*
X125700000Y-146900000I0J600000D01*
G01*
X153900000Y-147500000D02*
G75*
G03*
X154500000Y-146900000I0J600000D01*
G01*
X114300000Y-51000000D02*
G75*
G03*
X113700000Y-51600000I0J-600000D01*
G01*
X135900000Y-51000000D02*
G75*
G03*
X135300000Y-51600000I0J-600000D01*
G01*
X105300000Y-146900000D02*
G75*
G03*
X105900000Y-147500000I600000J0D01*
G01*
X95100000Y-51000000D02*
G75*
G03*
X94500000Y-51600000I0J-600000D01*
G01*
X120300000Y-147500000D02*
G75*
G03*
X120900000Y-146900000I0J600000D01*
G01*
X88500000Y-51600000D02*
G75*
G03*
X87900000Y-51000000I-600000J0D01*
G01*
X119700000Y-51600000D02*
G75*
G03*
X119100000Y-51000000I-600000J0D01*
G01*
X139500000Y-147500000D02*
G75*
G03*
X140100000Y-146900000I0J600000D01*
G01*
X102900000Y-51600000D02*
G75*
G03*
X102300000Y-51000000I-600000J0D01*
G01*
X151500000Y-147500000D02*
G75*
G03*
X152100000Y-146900000I0J600000D01*
G01*
X95700000Y-146900000D02*
G75*
G03*
X96300000Y-147500000I600000J0D01*
G01*
X169500000Y-51000000D02*
G75*
G03*
X168900000Y-51600000I0J-600000D01*
G01*
X108300000Y-147500000D02*
G75*
G03*
X108900000Y-146900000I0J600000D01*
G01*
X86700000Y-147500000D02*
G75*
G03*
X87300000Y-146900000I0J600000D01*
G01*
X131700000Y-51600000D02*
G75*
G03*
X131100000Y-51000000I-600000J0D01*
G01*
X137100000Y-147500000D02*
G75*
G03*
X137700000Y-146900000I0J600000D01*
G01*
X143700000Y-146900000D02*
G75*
G03*
X144300000Y-147500000I600000J0D01*
G01*
X96300000Y-147500000D02*
G75*
G03*
X96900000Y-146900000I0J600000D01*
G01*
X141300000Y-51600000D02*
G75*
G03*
X140700000Y-51000000I-600000J0D01*
G01*
X92700000Y-51000000D02*
G75*
G03*
X92100000Y-51600000I0J-600000D01*
G01*
X155700000Y-146900000D02*
G75*
G03*
X156300000Y-147500000I600000J0D01*
G01*
X167700000Y-51600000D02*
G75*
G03*
X167100000Y-51000000I-600000J0D01*
G01*
X126900000Y-51600000D02*
G75*
G03*
X126300000Y-51000000I-600000J0D01*
G01*
X88500000Y-146900000D02*
G75*
G03*
X89100000Y-147500000I600000J0D01*
G01*
X170100000Y-139400000D02*
G75*
G03*
X170700000Y-140000000I600000J0D01*
G01*
X98100000Y-146900000D02*
G75*
G03*
X98700000Y-147500000I600000J0D01*
G01*
X149100000Y-147500000D02*
G75*
G03*
X149700000Y-146900000I0J600000D01*
G01*
X84300000Y-143000000D02*
G75*
G03*
X84900000Y-142400000I0J600000D01*
G01*
X129300000Y-146900000D02*
G75*
G03*
X129900000Y-147500000I600000J0D01*
G01*
X102900000Y-146900000D02*
G75*
G03*
X103500000Y-147500000I600000J0D01*
G01*
X146100000Y-146900000D02*
G75*
G03*
X146700000Y-147500000I600000J0D01*
G01*
X83700000Y-56650000D02*
G75*
G03*
X83100000Y-56050000I-600000J0D01*
G01*
X109500000Y-51000000D02*
G75*
G03*
X108900000Y-51600000I0J-600000D01*
G01*
X173100000Y-140000000D02*
G75*
G03*
X173700000Y-139400000I0J600000D01*
G01*
X110100000Y-51600000D02*
G75*
G03*
X109500000Y-51000000I-600000J0D01*
G01*
X133500000Y-51000000D02*
G75*
G03*
X132900000Y-51600000I0J-600000D01*
G01*
X93300000Y-146900000D02*
G75*
G03*
X93900000Y-147500000I600000J0D01*
G01*
X140700000Y-51000000D02*
G75*
G03*
X140100000Y-51600000I0J-600000D01*
G01*
X104700000Y-51000000D02*
G75*
G03*
X104100000Y-51600000I0J-600000D01*
G01*
X170700000Y-140000000D02*
G75*
G03*
X171300000Y-139400000I0J600000D01*
G01*
X81300000Y-141500000D02*
G75*
G03*
X81900000Y-142100000I600000J0D01*
G01*
X107700000Y-51600000D02*
G75*
G03*
X107100000Y-51000000I-600000J0D01*
G01*
X148500000Y-51600000D02*
G75*
G03*
X147900000Y-51000000I-600000J0D01*
G01*
X163500000Y-140000000D02*
G75*
G03*
X164100000Y-139400000I0J600000D01*
G01*
%TD*%
M02*
